<?xml version="1.0" encoding="iso-8859-1"?>
<!-- Generator: Adobe Illustrator 19.0.0, SVG Export Plug-In . SVG Version: 6.00 Build 0)  -->
<svg version="1.1" id="Layer_1" xmlns="http://www.w3.org/2000/svg" xmlns:xlink="http://www.w3.org/1999/xlink" x="0px" y="0px"
	 viewBox="0 0 512.001 512.001" style="enable-background:new 0 0 512.001 512.001;" xml:space="preserve">
<path style="fill:#507C5C;" d="M256.001,512.001c-3.149,0-6.299-1.035-8.907-3.104L46.931,350.101
	c-3.428-2.719-5.425-6.854-5.425-11.228V219.256c0-5.498,3.146-10.513,8.096-12.905c4.953-2.392,10.837-1.74,15.142,1.677
	L192.462,309.35c6.202,4.919,7.241,13.934,2.32,20.135c-4.919,6.202-13.937,7.239-20.135,2.32L70.169,248.919v83.028L256,479.372
	L441.83,331.947v-83.028l-176.922,140.36c-6.202,4.92-15.218,3.881-20.135-2.32c-4.92-6.202-3.881-15.217,2.32-20.135
	l200.163-158.794c4.307-3.418,10.19-4.07,15.142-1.677c4.95,2.392,8.096,7.407,8.096,12.905v119.617
	c0,4.374-1.998,8.509-5.425,11.228L264.909,508.896C262.299,510.966,259.15,512.001,256.001,512.001z"/>
<polygon style="fill:#CFF09E;" points="55.838,133.95 256.001,292.746 456.164,133.95 456.164,14.333 256.001,173.129 
	55.838,14.333 "/>
<path style="fill:#507C5C;" d="M256.001,307.078c-3.149,0-6.299-1.035-8.907-3.104L46.931,145.178
	c-3.428-2.719-5.425-6.854-5.425-11.228V14.333c0-5.499,3.146-10.513,8.096-12.905c4.953-2.392,10.837-1.739,15.142,1.677
	L256,154.834L447.257,3.105c4.307-3.418,10.19-4.07,15.142-1.677c4.95,2.392,8.096,7.405,8.096,12.905V133.95
	c0,4.374-1.998,8.509-5.425,11.228L264.909,303.974C262.299,306.043,259.15,307.078,256.001,307.078z M70.17,127.026
	l185.831,147.425l185.831-147.425V43.998L264.909,184.357c-5.218,4.139-12.597,4.139-17.815,0L70.17,43.998V127.026z"/>
<g>
</g>
<g>
</g>
<g>
</g>
<g>
</g>
<g>
</g>
<g>
</g>
<g>
</g>
<g>
</g>
<g>
</g>
<g>
</g>
<g>
</g>
<g>
</g>
<g>
</g>
<g>
</g>
<g>
</g>
</svg>
