<?xml version="1.0"?>
<svg xmlns="http://www.w3.org/2000/svg" id="Capa_1" enable-background="new 0 0 512 512" height="512px" viewBox="0 0 512 512" width="512px"><g><path d="m346.688 186.678 9.816-78.616-7.829-5.125c-13.736-8.991-25.357-21.256-33.606-35.468l-4.335-7.469h-109.472l-4.335 7.47c-8.249 14.212-19.87 26.476-33.606 35.468l-7.829 5.125 9.817 78.619c6.233 49.84 39.953 91.656 85.207 109.425l5.482 2.152 5.482-2.152c45.483-17.86 79.004-59.824 85.208-109.429zm-90.69 79.164c-32.785-15.138-56.441-47.063-60.921-82.881l-7.545-60.421c11.907-9.063 22.322-20.112 30.67-32.54h75.592c8.348 12.428 18.763 23.477 30.67 32.54l-7.544 60.418c-4.481 35.821-28.137 67.746-60.922 82.884z" data-original="#000000" class="active-path" data-old_color="#000000" fill="#2F3333"/><path d="m511.999 362h-91.001v-60h-64.74c27.178-29.723 44.922-67.524 49.967-107.879l16.764-134.121h-16.991c-24.813 0-45-20.187-45-45v-15h-210v15c0 24.813-20.187 45-45 45h-16.991l16.765 134.121c5.045 40.355 22.788 78.156 49.966 107.879h-64.74v60h-90.997l37.5 75-37.5 75h180.997v-60h150v60h181.001l-37.5-75zm-376.46-171.6-12.785-102.287c28.51-6.53 50.876-29.358 56.737-58.113h153.014c5.861 28.756 28.228 51.583 56.737 58.113l-12.785 102.287c-5.524 44.191-29.031 84.771-64.562 111.6h-111.793c-35.532-26.828-59.039-67.408-64.563-111.6zm-14.541 141.6h270v90h-270zm30 150h-102.456l22.5-45-22.5-45h42.456v60h60zm312.46 0h-102.46v-30h60v-60h42.46l-22.5 45z" data-original="#000000" class="active-path" data-old_color="#000000" fill="#2F3333"/><path d="m180.998 362h30v30h-30z" data-original="#000000" class="active-path" data-old_color="#000000" fill="#2F3333"/><path d="m240.998 362h30v30h-30z" data-original="#000000" class="active-path" data-old_color="#000000" fill="#2F3333"/><path d="m300.998 362h30v30h-30z" data-original="#000000" class="active-path" data-old_color="#000000" fill="#2F3333"/></g> </svg>
