<svg height="512pt" viewBox="0 0 512.001 512" width="512pt" xmlns="http://www.w3.org/2000/svg"><path d="m346.671875 512h-181.34375c-8.257813 0-14.953125-6.695312-14.953125-14.953125v-135.421875h-135.421875c-8.257813 0-14.953125-6.695312-14.953125-14.953125v-181.339844c0-8.261719 6.695312-14.957031 14.953125-14.957031h135.421875v-135.417969c0-8.261719 6.695312-14.957031 14.953125-14.957031h181.34375c8.257813 0 14.953125 6.695312 14.953125 14.957031v135.417969h135.421875c8.257813 0 14.953125 6.699219 14.953125 14.957031v181.339844c0 8.257813-6.695312 14.953125-14.953125 14.953125h-135.421875v135.421875c0 8.257813-6.695312 14.953125-14.953125 14.953125zm0 0" fill="#ef5f3c"/><path d="m497.046875 150.375h-135.421875v-135.417969c0-8.261719-6.695312-14.957031-14.953125-14.957031h-90.671875v512h90.671875c8.257813 0 14.953125-6.695312 14.953125-14.953125v-135.421875h135.421875c8.257813 0 14.953125-6.695312 14.953125-14.953125v-181.339844c0-8.261719-6.695312-14.957031-14.953125-14.957031zm0 0" fill="#ec380b"/></svg>