<?xml version="1.0" encoding="utf-8"?>
<svg width="512px" height="512px" viewBox="0 0 512 512" version="1.1" xmlns:xlink="http://www.w3.org/1999/xlink" xmlns="http://www.w3.org/2000/svg">
  <desc>Created with Lunacy</desc>
  <g id="monday">
    <path d="M415.602 32.1367L456.832 32.1367C487.254 32.1367 512 56.8828 512 87.3008L512 456.832C512 487.254 487.254 512 456.832 512L55.168 512C24.7461 512 0 487.254 0 456.832L0 87.3008C0 56.8828 24.7461 32.1367 55.168 32.1367L96.3984 32.1367L96.3984 15C96.3984 6.71484 103.117 0 111.398 0C119.684 0 126.398 6.71484 126.398 15L126.398 32.1367L192.801 32.1367L192.801 15C192.801 6.71484 199.516 0 207.801 0C216.086 0 222.801 6.71484 222.801 15L222.801 32.1367L289.199 32.1367L289.199 15C289.199 6.71484 295.914 0 304.199 0C312.484 0 319.199 6.71484 319.199 15L319.199 32.1367L385.602 32.1367L385.602 15C385.602 6.71484 392.316 0 400.602 0C408.883 0 415.602 6.71484 415.602 15L415.602 32.1367ZM55.168 62.1367L96.3984 62.1367L96.3984 63.1992C96.3984 71.4844 103.117 78.1992 111.398 78.1992C119.684 78.1992 126.398 71.4844 126.398 63.1992L126.398 62.1367L192.801 62.1367L192.801 63.1992C192.801 71.4844 199.516 78.1992 207.801 78.1992C216.086 78.1992 222.801 71.4844 222.801 63.1992L222.801 62.1367L289.199 62.1367L289.199 63.1992C289.199 71.4844 295.914 78.1992 304.199 78.1992C312.484 78.1992 319.199 71.4844 319.199 63.1992L319.199 62.1367L385.602 62.1367L385.602 63.1992C385.602 71.4844 392.316 78.1992 400.602 78.1992C408.883 78.1992 415.602 71.4844 415.602 63.1992L415.602 62.1367L456.832 62.1367C470.711 62.1367 482 73.4258 482 87.3008L482 160.668L30 160.668L30 87.3008C30 73.4258 41.2891 62.1367 55.168 62.1367ZM55.168 482L456.832 482C470.711 482 482 470.711 482 456.832L482 190.668L30 190.668L30 456.832C30 470.711 41.2891 482 55.168 482Z" id="Shape" fill="#000000" fill-rule="evenodd" stroke="none" />
  </g>
  <g id="DM" transform="translate(101 243)">
    <path d="M132.7 108.3L132.5 92.9Q132.5 73.9 131.1 62.7Q129.1 46.9 118.1 35.9Q104.5 22.3 80.5 22.3L25.1 22.3L25.1 127.3Q25.1 148.5 36.5 156.6Q47.9 164.7 78.5 164.7Q104.5 164.7 118.1 151.1Q126.3 142.9 129.1 132.9Q131.9 122.9 132.7 108.3ZM236.5 133.7L262.1 79.7L262.1 164.7L289.9 164.7L289.9 22.3L262.5 22.3L222.5 104.5L182.3 22.3L154.9 22.3L154.9 164.7L182.7 164.7L182.7 79.7L208.7 133.1Q214.3 144.5 222.6 144.5Q230.9 144.5 236.5 133.7ZM103.6 118.4Q102.5 126.5 98.7 131.1Q91.5 139.9 77.6 139.9Q63.7 139.9 58.3 136.9Q52.9 133.9 52.9 125.9L52.9 47.1L77.9 47.1Q91.5 47.1 98.7 55.9Q102.5 60.5 103.6 68.2Q104.7 75.9 104.7 93.1Q104.7 110.3 103.6 118.4Z" />
  </g>
</svg>