<?xml version="1.0"?>
<svg xmlns="http://www.w3.org/2000/svg" id="Layer_1" enable-background="new 0 0 513 513" height="512px" viewBox="0 0 513 513" width="512px"><g><g><path d="m468.5 212c0-16.035-9.648-30.078-23.718-36.228 12.897-12.498 13.987-30.838 7.395-44.775-6.509-13.76-21.093-24.44-38.627-22.75 2.878-5.551 4.403-11.758 4.403-18.207 0-10.576-4.101-20.501-11.546-27.946-11.338-11.339-28.091-14.446-42.388-8.845.281-17.958-11.917-31.698-26.434-36.892-14.333-5.124-32.201-2.377-43.403 11.232-5.071-15.979-20.046-27.589-37.682-27.589-16.035 0-30.078 9.648-36.227 23.719-12.5-12.899-30.839-13.988-44.776-7.396-13.758 6.509-24.448 21.085-22.75 38.627-5.551-2.879-11.758-4.403-18.207-4.403-10.577 0-20.502 4.101-27.947 11.547-11.339 11.339-14.446 28.091-8.845 42.387-17.97-.242-31.698 11.916-36.891 26.434-5.127 14.332-2.377 32.201 11.231 43.403-15.978 5.071-27.588 20.045-27.588 37.682 0 16.036 9.648 30.079 23.719 36.227-12.897 12.499-13.988 30.839-7.396 44.776 6.509 13.76 21.094 24.454 38.634 22.749-7.713 14.886-5.334 33.685 7.137 46.154 6.387 6.387 14.491 10.16 22.906 11.238v124.856c0 4.663 2.169 9.061 5.868 11.899 3.698 2.839 8.507 3.796 13.013 2.59l108.119-28.961 108.119 28.961c1.28.343 2.583.511 3.88.511 3.267 0 6.484-1.067 9.133-3.101 3.699-2.839 5.868-7.236 5.868-11.899v-124.873c8.661-1.09 16.658-4.971 22.906-11.221 11.339-11.338 14.447-28.091 8.845-42.388 17.975.267 31.698-11.916 36.891-26.434 5.126-14.332 2.377-32.2-11.233-43.403 15.981-5.07 27.591-20.045 27.591-37.681zm-208.119 241.511c-2.542-.682-5.22-.682-7.762 0l-93.119 24.942v-81.137c4.46 4.668 9.994 8.208 15.914 10.326 14.334 5.128 32.202 2.377 43.403-11.231 5.072 15.979 20.047 27.589 37.683 27.589 16.036 0 30.079-9.648 36.227-23.719 12.498 12.897 30.837 13.985 44.776 7.396 6.263-2.963 11.885-7.602 15.997-13.427v84.204zm168.596-231.989h-4.918c-11.897 0-21.877 8.157-24.271 19.836-2.393 11.68 3.575 23.104 14.515 27.784l4.521 1.933c7.303 3.124 5.979 9.366 5.071 11.905-.91 2.541-3.851 8.208-11.476 5.995-10.369-3.016-21.404.976-27.461 9.928-6.058 8.953-5.656 20.682.999 29.185 2.916 3.725 2.58 9.262-.765 12.605-1.779 1.78-4.171 2.76-6.733 2.76s-4.954-.979-6.732-2.758l-3.479-3.48c-8.428-8.426-21.26-9.728-31.206-3.163-9.947 6.563-13.798 18.873-9.364 29.938l1.83 4.565c2.955 7.372-2.396 10.85-4.833 12.003-2.44 1.153-8.526 3.086-12.353-3.876-5.202-9.468-15.83-14.452-26.439-12.404-10.613 2.047-18.622 10.627-19.929 21.351-.572 4.694-4.725 8.372-9.454 8.372-5.162 0-9.523-4.36-9.523-9.522v-4.918c0-11.897-8.157-21.878-19.835-24.271-1.723-.354-3.44-.524-5.131-.524-9.772 0-18.664 5.713-22.652 15.038l-1.934 4.521c-3.124 7.303-9.366 5.978-11.905 5.071-2.541-.909-8.212-3.848-5.995-11.477 3.014-10.369-.977-21.404-9.929-27.461-8.954-6.059-20.681-5.656-29.183.999-3.726 2.916-9.262 2.581-12.606-.764-3.65-3.65-3.65-9.817 0-13.468l3.477-3.477c8.427-8.427 9.729-21.259 3.165-31.207-6.563-9.946-18.873-13.797-29.938-9.364l-4.564 1.83c-7.371 2.951-10.851-2.395-12.004-4.833-1.154-2.439-3.086-8.527 3.877-12.354 9.466-5.202 14.451-15.828 12.403-26.44-2.047-10.612-10.627-18.62-21.35-19.928-4.695-.572-8.372-4.725-8.372-9.453 0-5.162 4.361-9.523 9.522-9.523h4.918c11.897 0 21.878-8.157 24.271-19.836s-3.575-23.104-14.513-27.782l-4.523-1.935c-7.303-3.124-5.979-9.366-5.07-11.905.909-2.541 3.851-8.215 11.476-5.995 10.368 3.016 21.404-.975 27.461-9.928 6.058-8.953 5.656-20.681-.999-29.185-2.915-3.725-2.579-9.261.765-12.604 1.779-1.78 4.171-2.76 6.733-2.76s4.954.979 6.734 2.761l3.475 3.474c8.426 8.429 21.259 9.729 31.206 3.168 9.95-6.563 13.801-18.875 9.366-29.938l-1.829-4.563c-2.956-7.374 2.396-10.852 4.833-12.005 2.439-1.154 8.526-3.086 12.354 3.877 5.203 9.467 15.83 14.452 26.439 12.402 10.612-2.047 18.621-10.627 19.928-21.349.571-4.695 4.723-8.373 9.452-8.373 5.162 0 9.523 4.361 9.523 9.523v4.917c0 11.897 8.157 21.878 19.835 24.271 11.682 2.397 23.104-3.575 27.783-14.514l1.935-4.521c3.123-7.303 9.366-5.979 11.905-5.071 2.541.909 8.212 3.848 5.995 11.477-3.015 10.368.975 21.403 9.928 27.461 8.953 6.057 20.682 5.655 29.184-1 3.725-2.914 9.262-2.579 12.605.765 1.78 1.779 2.76 4.171 2.76 6.733s-.98 4.955-2.76 6.734l-3.475 3.475c-8.428 8.426-9.73 21.259-3.166 31.21 6.565 9.948 18.875 13.797 29.937 9.363l4.564-1.83c7.375-2.951 10.852 2.396 12.004 4.833 1.154 2.439 3.086 8.527-3.877 12.354-9.466 5.202-14.45 15.828-12.402 26.439 2.047 10.612 10.627 18.62 21.349 19.928 4.695.572 8.373 4.726 8.373 9.454 0 5.161-4.361 9.521-9.523 9.521z" data-original="#000000" class="active-path" data-old_color="#000000" fill="#808080"/><path d="m217.25 195c24.813 0 45-20.187 45-45s-20.187-45-45-45-45 20.187-45 45 20.187 45 45 45zm0-60c8.271 0 15 6.729 15 15s-6.729 15-15 15-15-6.729-15-15 6.729-15 15-15z" data-original="#000000" class="active-path" data-old_color="#000000" fill="#808080"/><path d="m309.25 228.999c-24.813 0-45 20.188-45 45.001s20.187 45 45 45 45-20.187 45-45-20.187-45.001-45-45.001zm0 60.001c-8.271 0-15-6.729-15-15s6.729-15.001 15-15.001 15 6.729 15 15.001-6.729 15-15 15z" data-original="#000000" class="active-path" data-old_color="#000000" fill="#808080"/><path d="m330.831 143.419c-5.857-5.857-15.355-5.857-21.213 0l-129.449 129.448c-5.858 5.857-5.858 15.355 0 21.213 2.929 2.929 6.768 4.394 10.606 4.394s7.678-1.465 10.606-4.394l129.448-129.448c5.859-5.858 5.859-15.356.002-21.213z" data-original="#000000" class="active-path" data-old_color="#000000" fill="#808080"/></g></g> </svg>
