<svg id="Layer_1" enable-background="new 0 0 512 512" height="512" viewBox="0 0 512 512" width="512" xmlns="http://www.w3.org/2000/svg"><g><path d="m448.468 393.518c26.227-39.012 41.537-85.976 41.537-136.518 0-135.311-109.691-245.002-245.002-245.002-66.554 0-126.897 26.549-171.051 69.62l60.267 311.901h314.249z" fill="#38c674"/><path d="m150.566 478.125 1.049 5.431c28.783 11.878 60.316 18.445 93.387 18.445 37.818 0 73.631-8.575 105.611-23.876z" fill="#1c2e7a"/><path d="m424.809 197.594c-12.977 16.82-31.594 26.501-51.079 26.562-.007 0-.013 0-.02 0-2.802 0-5.145-1.766-6.268-4.727-.995-2.622-1.042-6.665 2.097-9.43 3.383-2.98 6.526-6.339 9.343-9.983 1.557-2.014 1.83-4.68.711-6.958-1.109-2.259-3.364-3.663-5.886-3.663-15.477 0-28.068-12.591-28.068-28.069v-80.53h-33.572l-.004 29.076c1.386.137 5.045-.337 6.851 1.429 5.913 5.78 1.654 14.674-1.24 22.358-2.456 6.527-1.011 9.933-4.337 13.371l-.858.887.136 1.227c1.35 12.164 4.854 29.807 13.886 44.779 6.276 10.402 1.249 24.054-10.266 28.019-12.284 4.229-25.315 6.843-38.753 7.776-4.694-6.788-2.798-11.153-3.237-16.598-2.816 2.164-9.849 9.806-23.562 15.739-6.138 2.655-13.181 2.656-19.321 0-14.49-6.27-21.778-14.556-24.611-16.799-.478 6.385 1.54 10.752-3.237 17.659-13.438-.933-26.469-3.547-38.751-7.776-11.535-3.972-16.533-17.635-10.268-28.019 11.631-19.281 13.176-40.848 14.109-46.897l-.597-.815c-2.451-3.354-1.436-6.705-3.637-12.552-2.922-7.762-7.14-16.59-1.241-22.357 1.798-1.757 5.41-1.296 6.849-1.44v-29.067h-95.19c-46.106 44.55-74.788 107.024-74.788 176.204 0 73.88 32.704 140.12 84.422 185.041h372.214c13.679 0 24.809-11.129 24.809-24.808v-227.837h-40.24c-6.4 0-12.376 2.987-16.396 8.198z" fill="#167cc1"/><path d="m128.921 440.1c-8.026-6.917-6.179-14.89-4.244-19.192.797-1.772.242-3.882-1.373-4.962-10.21-6.825-7.735-16.072-5.881-20.236.598-1.342.395-2.905-.505-4.066-5.881-7.593-1.389-14.599.721-17.173.599-.73.938-1.638.938-2.583v-12.916c0-.794-.232-1.576-.679-2.231-6.52-9.566-.128-16.017 2.546-18.129.697-.55 1.194-1.308 1.414-2.168l18.828-73.723c.388-1.519-.137-3.135-1.361-4.115-49.941-39.977-28.788-98.276-23.516-110.645.556-1.305.371-2.795-.456-3.947-2.115-2.946-.493-5.754.648-7.155.574-.704.871-1.588.871-2.497v-18.564c0-.907-.338-1.766-.877-2.496-1.671-2.262-1.368-4.396-.692-5.923.673-1.519.419-3.273-.708-4.493-8.182-8.856-3.107-16.629.158-20.126.526-.564.861-1.248 1.012-1.966h-40.973c-46.11 44.552-74.792 107.026-74.792 176.206 0 73.88 32.704 140.12 84.422 185.041h45.748c-.226-.744-.647-1.423-1.249-1.941z" fill="#0e62a8"/><path d="m25.69 147.701h142.819c.034-.241.067-.469.098-.675l-.597-.815c-2.451-3.354-1.436-6.705-3.637-12.552-2.922-7.763-7.14-16.59-1.241-22.357 1.798-1.757 5.41-1.296 6.849-1.44v-4.785c-47.683 0-90.299 0-117.193 0-10.428 13.176-19.522 27.453-27.098 42.624z" fill="#2a428c"/><path d="m25.69 147.701h90.209c.429-1.24.226-2.61-.548-3.687-2.115-2.946-.493-5.754.648-7.155.574-.704.871-1.588.871-2.497v-18.564c0-.907-.338-1.766-.877-2.496-1.671-2.262-1.368-4.396-.692-5.923.329-.743.433-1.54.326-2.305-25.048 0-46.756 0-62.839 0-10.428 13.178-19.522 27.456-27.098 42.627z" fill="#1c2e7a"/><path d="m313.338 147.03-.65.671h32.951v-42.625c-10.785 0-22.027 0-33.575 0v4.796c1.386.137 5.045-.337 6.851 1.429 5.913 5.78 1.654 14.674-1.24 22.358-2.456 6.527-1.011 9.932-4.337 13.371z" fill="#2a428c"/><path d="m424.809 197.594c-12.977 16.82-31.594 26.501-51.079 26.562-.007 0-.013 0-.02 0-2.802 0-5.145-1.766-6.268-4.727-.995-2.622-1.042-6.665 2.097-9.43 3.383-2.98 6.526-6.339 9.343-9.983 1.557-2.014 1.83-4.68.711-6.958-1.109-2.259-3.364-3.663-5.886-3.663-15.477 0-28.068-12.591-28.068-28.069v-15.725h-31.183c-.3.48-.661.954-1.119 1.428l-.858.887.136 1.227c1.35 12.164 4.854 29.807 13.886 44.779 6.276 10.402 1.249 24.054-10.266 28.019-12.284 4.229-25.315 6.843-38.753 7.776-4.694-6.788-2.798-11.153-3.237-16.598-2.816 2.164-9.849 9.806-23.562 15.739-6.138 2.655-13.181 2.656-19.321 0-14.49-6.27-21.778-14.556-24.611-16.799-.478 6.385 1.54 10.752-3.237 17.659-13.438-.933-26.469-3.547-38.751-7.776-11.535-3.972-16.533-17.635-10.268-28.019 11.631-19.281 13.176-40.848 14.109-46.897l-.597-.815c-.148-.203-.282-.406-.407-.609h-140.866c-.993 1.941-1.955 3.9-2.897 5.871v211.053c9.595 20.073 21.839 38.635 36.285 55.234h396.514c.261 0 .528-.266.528-.528v-227.836h-15.959c-6.4 0-12.376 2.987-16.396 8.198z" fill="#e9efff"/><path d="m123.303 415.946c-10.21-6.825-7.735-16.072-5.881-20.236.598-1.342.395-2.905-.505-4.066-5.881-7.593-1.389-14.599.721-17.173.599-.73.938-1.638.938-2.583v-12.916c0-.794-.232-1.576-.679-2.231-6.52-9.566-.128-16.017 2.546-18.129.697-.55 1.194-1.308 1.414-2.168l18.828-73.723c.388-1.519-.137-3.135-1.361-4.115-49.941-39.977-28.788-98.276-23.516-110.645.323-.759.389-1.579.231-2.36h-89.305c-.993 1.941-1.955 3.9-2.897 5.871v211.053c9.595 20.073 21.839 38.635 36.285 55.234h64.624c-.284-.717-.763-1.359-1.443-1.813z" fill="#d3dcfb"/><circle cx="57.097" cy="125.124" fill="#ff4155" r="10.81"/><circle cx="86.984" cy="125.124" fill="#ffdd40" r="10.81"/><circle cx="116.87" cy="125.124" fill="#38c674" r="10.81"/><path d="m305.53 127.097c.155 8.48-.683 17.166-1.589 22.956-4.279 18.86-10.457 35.281-18.36 48.805-3.583 6.132-8.053 11.706-13.287 16.567l-.67.623v4.224c0 4.378 1.702 8.428 4.598 12.156 16.216-.98 30.002-4.265 40.869-8.007 13.08-4.504 18.806-20.011 11.66-31.856-16.828-27.893-14.32-65.469-14.32-65.469h-8.901z" fill="#ffe98d"/><path d="m163.911 224.423c10.866 3.742 24.653 7.026 40.868 8.007 2.897-3.729 4.599-7.778 4.599-12.156v-5.188l-.642-.619c-4.79-4.624-8.918-9.875-12.268-15.607-7.907-13.533-14.083-29.948-18.356-48.787-.936-5.462-1.782-14.29-1.594-22.975h-9.948s2.508 37.577-14.32 65.469c-7.145 11.845-1.42 27.351 11.661 31.856z" fill="#ffdd40"/><g><path d="m279.022 18.81c-10.082-5.202-22.619-8.811-37.997-8.811s-27.915 3.609-37.997 8.811c-22.07 11.386-35.671 33.996-35.671 58.393v30.095l.001.01c3.481-.082 7.332 1.059 9.813 2.713.914-2.991 2.165-5.581 3.857-7.487 1.522-1.715 2.477-3.838 2.545-6.108.259-8.688 2.539-29.219 17.838-37.078 4.263-2.189 9.47-.519 11.865 3.632 9.215 15.978 30.713 37.033 78.518 28.06 3.39-.636 6.577 1.885 6.682 5.333 0 .018.001.036.002.054.068 2.27 1.023 4.393 2.545 6.108 1.691 1.906 2.942 4.496 3.856 7.487 2.481-1.654 6.332-2.794 9.813-2.713l.001-.01v-30.097c-.001-24.396-13.601-47.006-35.671-58.392z" fill="#ffe98d"/></g><path d="m260.023 11.997c-5.787-1.269-12.105-1.999-18.999-1.999-15.378 0-27.915 3.609-37.997 8.811-22.07 11.386-35.67 33.996-35.67 58.393v30.095l.001.01c3.481-.082 7.332 1.059 9.813 2.713.914-2.991 2.165-5.581 3.857-7.487 1.522-1.715 2.477-3.838 2.545-6.108.259-8.688 2.539-29.219 17.838-37.078 4.262-2.189 9.47-.519 11.865 3.632 3.574 6.197 9.009 13.152 17.097 18.829.44-.348.888-.654 1.345-.89 17.116-8.822 25.884-27.512 13.551-45.179-12.33-17.661 14.735-23.737 14.754-23.742z" fill="#ffdd40"/><path d="m223.082 283.03c1.581 1.365 2.267 3.353 2.023 5.281h31.842c-.244-1.927.442-3.916 2.023-5.281l41.61-35.945c-14.778-6.826-26.858-15.778-26.858-26.812 0-4.617 0-3.234 0-6.223-8.049 7.196-21.853 16.364-33.221 16.64-11.368-.275-25.172-9.443-33.222-16.64v6.223c0 10.864-11.711 19.708-26.176 26.493z" fill="#fcad6d"/><path d="m207.278 214.05v6.223c0 10.864-11.711 19.708-26.176 26.493l29.617 25.585c.177.033.353.067.519.103 2.939.65 6.004.139 8.51-1.529 16.924-11.264 20.677-29.614 21.341-40.277-.195.01-.395.037-.589.042-11.368-.276-25.172-9.444-33.222-16.64z" fill="#fd995b"/><path d="m482.357 9.999h-108.649c-16.304 0-29.643 13.339-29.643 29.643v121.686c0 16.304 13.339 29.643 29.643 29.643 4.167 0 6.477 4.786 3.929 8.083-2.715 3.513-5.759 6.788-9.138 9.764-6.304 5.553-2.758 16.937 5.237 16.913 20.319-.063 39.361-10.377 52.32-27.175 3.642-4.721 9.186-7.585 15.149-7.585h41.153c16.304 0 29.643-13.339 29.643-29.643v-121.686c-.001-16.304-13.34-29.643-29.644-29.643z" fill="#73c3f9"/><path d="m417.398 161.327v-121.685c0-16.304 13.339-29.643 29.643-29.643h-73.333c-16.303 0-29.643 13.339-29.643 29.643v121.686c0 16.304 13.339 29.643 29.643 29.643 4.167 0 6.478 4.786 3.929 8.083-2.715 3.513-5.759 6.788-9.138 9.764-6.304 5.553-2.758 16.937 5.237 16.913 20.319-.063 39.361-10.377 52.32-27.175 3.643-4.721 9.186-7.585 15.149-7.585h5.837c-16.305-.001-29.644-13.34-29.644-29.644z" fill="#4fabf7"/><path d="m176.564 150.367s-3.996-25.288.606-40.347c-4.176-2.784-12.243-4.142-15.872-.595-7.429 7.262-1.986 18.229.619 25.157.8 2.127 1.316 4.278 1.549 6.434.507 4.683 3.046 11.538 13.575 11.376-.158-.675-.321-1.339-.477-2.025z" fill="#fcad6d"/><path d="m174.969 130.538c-1.866.975-3.984 1.533-6.235 1.533-3.537 0-6.746-1.371-9.153-3.598.787 2.219 1.658 4.301 2.337 6.108.8 2.127 1.316 4.278 1.549 6.434.507 4.683 3.046 11.538 13.575 11.376-.159-.675-.322-1.339-.478-2.025 0 .001-1.453-9.213-1.595-19.828z" fill="#fd995b"/><path d="m320.75 109.425c-3.628-3.547-11.696-2.188-15.872.595 4.602 15.06.607 40.347.607 40.347-.156.686-.318 1.35-.478 2.025 10.529.162 13.068-6.693 13.575-11.376.233-2.156.749-4.307 1.549-6.434 2.605-6.928 8.048-17.895.619-25.157z" fill="#fcad6d"/><path d="m313.444 132.072c-2.301 0-4.467-.579-6.363-1.595-.137 10.641-1.596 19.89-1.596 19.89-.156.686-.318 1.35-.478 2.025 10.529.162 13.068-6.693 13.575-11.376.233-2.156.749-4.307 1.549-6.434.662-1.76 1.506-3.781 2.277-5.936-2.385 2.124-5.519 3.426-8.964 3.426z" fill="#fd995b"/><path d="m299.002 96.409c-.033-1.105-.103-2.441-.232-3.934-.388-.56-.851-1.073-1.395-1.511-1.649-1.327-3.795-1.862-5.872-1.473-45.585 8.555-66.956-10.124-76.865-27.3-1.809-3.138-4.944-5.027-8.266-5.336-2.813.78-5.397 1.949-7.744 3.511-13.357 8.894-15.345 28.169-15.58 36.043-.061 2.07-.896 4.066-2.414 5.776-8.364 9.425-6.533 36.961-4.581 48.298 4.322 19.075 10.581 35.707 18.603 49.436 8.144 13.937 20.477 24.777 35.665 31.348 6.803 2.942 14.603 2.942 21.406 0 15.189-6.571 27.522-17.411 35.666-31.348 8.021-13.725 14.281-30.358 18.611-49.469 1.874-11.917 3.871-38.731-4.589-48.264-1.517-1.711-2.351-3.709-2.413-5.777z" fill="#f9ba8f"/><path d="m241.085 199.918c-8.022-13.729-14.282-30.361-18.603-49.436-1.951-11.337-3.783-38.872 4.581-48.298 1.518-1.71 2.352-3.706 2.414-5.776.105-3.528.566-9.346 2.24-15.492-7.834-5.396-13.296-12.168-17.079-18.726-1.809-3.138-4.944-5.027-8.266-5.336-2.813.78-5.397 1.949-7.744 3.511-13.357 8.894-15.345 28.168-15.58 36.043-.061 2.07-.896 4.066-2.414 5.776-8.364 9.425-6.533 36.961-4.581 48.298 4.321 19.075 10.581 35.707 18.603 49.436 8.143 13.937 20.477 24.777 35.665 31.348 6.803 2.942 14.603 2.942 21.405 0 4.427-1.915 8.603-4.204 12.512-6.815-9.501-6.348-17.383-14.658-23.153-24.533z" fill="#fcad6d"/><path d="m397.241 296.42c-12.208-24.416-33.634-31.234-43.397-33.108 0 0-6.012-1.098-14.735-3.273-11.036 34.806-24.52 53.843-40.144 56.606-1.309.231-2.608.34-3.897.34-16.472-.002-31.195-20.943-37.047-29.056-.173-.239-.317-.488-.449-.742h-33.092c-.132.253-.277.503-.449.742-6.311 8.749-22.941 31.905-40.943 28.716-15.661-2.77-29.173-21.889-40.223-56.851-9.248 2.338-15.709 3.518-15.709 3.518-9.763 1.875-31.189 8.693-43.397 33.108-5.373 10.746-8.791 26.012-10.753 43.538h334.988c-1.961-17.526-5.38-32.793-10.753-43.538z" fill="#f964b2"/><path d="m368.012 339.957c-2.712-10.239-6.751-21.105-12.56-27.53-3.975-4.396-11.268-1.626-11.268 4.3v23.23z" fill="#ea349c"/><path d="m160.496 308.089c1.906-.284 3.68-1.072 5.158-2.251-8.457-9.433-16.078-24.811-22.789-46.044-9.248 2.338-15.71 3.518-15.71 3.518-9.763 1.875-31.188 8.693-43.397 33.108-5.373 10.746-8.791 26.012-10.753 43.538h47.974c5.256-24.187 29.248-30.341 39.517-31.869z" fill="#ea349c"/><path d="m141.335 260.177c30.113 95.272 71.303 49.386 83.974 31.822 2.298-3.185 1.776-7.592-1.197-10.159l-41.458-35.814c-13.557 6.593-29.891 11.324-41.319 14.151z" fill="#fc90ce"/><path d="m182.654 246.025c-13.557 6.594-29.891 11.325-41.319 14.152 7.226 22.862 15.09 37.579 23.045 46.526 1.396-.821 2.613-1.942 3.533-3.315 20.941-31.255 36.626-32.415 43.325-30.933.769.17 1.545.256 2.319.267z" fill="#f964b2"/><path d="m340.643 260.417c-11.274-2.75-27.808-7.45-41.624-14.064l-41.079 35.486c-2.972 2.567-3.494 6.974-1.196 10.159 12.66 17.55 53.792 63.38 83.899-31.581z" fill="#fc90ce"/><path d="m422.842 337.858h-364.685c-6.984 0-12.699 5.715-12.699 12.699v30.26c0 6.985 5.715 12.699 12.699 12.699h364.685c6.985 0 12.699-5.715 12.699-12.699v-30.26c.001-6.984-5.714-12.699-12.699-12.699z" fill="#73c3f9"/><path d="m58.158 337.858c-6.984 0-12.7 5.715-12.7 12.699v30.26c0 6.985 5.715 12.699 12.7 12.699h59.556c-.1-.671-.366-1.319-.796-1.874-5.881-7.593-1.389-14.599.721-17.173.599-.73.938-1.638.938-2.583v-12.916c0-.794-.232-1.576-.679-2.231-6.52-9.566-.128-16.017 2.546-18.129.276-.218.511-.477.719-.754h-63.005z" fill="#4fabf7"/><g><path d="m118.577 373.431h-5.378c-4.348 0-7.872-3.525-7.872-7.872 0-4.348 3.524-7.872 7.872-7.872h5.378c4.348 0 7.872 3.525 7.872 7.872s-3.524 7.872-7.872 7.872z" fill="#e9efff"/></g><g><path d="m400.97 373.431h-5.378c-4.348 0-7.872-3.525-7.872-7.872 0-4.348 3.525-7.872 7.872-7.872h5.378c4.348 0 7.872 3.525 7.872 7.872s-3.524 7.872-7.872 7.872z" fill="#e9efff"/></g><g><path d="m88.348 373.431h-5.378c-4.348 0-7.872-3.525-7.872-7.872 0-4.348 3.524-7.872 7.872-7.872h5.378c4.347 0 7.872 3.525 7.872 7.872s-3.525 7.872-7.872 7.872z" fill="#e9efff"/></g><g><path d="m368.704 373.431h-140c-4.348 0-7.872-3.525-7.872-7.872 0-4.348 3.524-7.872 7.872-7.872h140c4.348 0 7.872 3.525 7.872 7.872s-3.524 7.872-7.872 7.872z" fill="#9bd8f9"/></g><g><path d="m228.704 373.431h-84.609c-4.348 0-7.872-3.525-7.872-7.872 0-4.348 3.525-7.872 7.872-7.872h84.609c4.348 0 7.872 3.525 7.872 7.872.001 4.347-3.524 7.872-7.872 7.872z" fill="#e9efff"/></g><g><path d="m228.705 381.381c-4.348 0-7.872-3.525-7.872-7.872v-15.642c0-4.348 3.525-7.872 7.872-7.872 4.348 0 7.872 3.525 7.872 7.872v15.642c0 4.348-3.524 7.872-7.872 7.872z" fill="#4fabf7"/></g><g><path d="m429.58 67.087h-48.839c-4.348 0-7.872-3.524-7.872-7.872s3.525-7.872 7.872-7.872h48.839c4.348 0 7.872 3.525 7.872 7.872s-3.525 7.872-7.872 7.872z" fill="#9bd8f9"/></g><g><path d="m475.324 96.313h-94.583c-4.348 0-7.872-3.524-7.872-7.872s3.525-7.872 7.872-7.872h94.583c4.348 0 7.872 3.524 7.872 7.872s-3.524 7.872-7.872 7.872z" fill="#9bd8f9"/></g><g><path d="m475.324 125.54h-94.583c-4.348 0-7.872-3.524-7.872-7.872s3.525-7.872 7.872-7.872h94.583c4.348 0 7.872 3.524 7.872 7.872s-3.524 7.872-7.872 7.872z" fill="#9bd8f9"/></g><g><path d="m475.324 154.767h-94.583c-4.348 0-7.872-3.525-7.872-7.872 0-4.348 3.525-7.872 7.872-7.872h94.583c4.348 0 7.872 3.524 7.872 7.872s-3.524 7.872-7.872 7.872z" fill="#9bd8f9"/></g><path d="m504.467 441.248h-155.41v8.708c0 6.112-4.972 11.085-11.085 11.085h-194.944c-6.112 0-11.085-4.973-11.085-11.085v-8.708h-48.414c20.356 17.854 43.694 32.382 69.172 42.753h302.994c3.87 0 7.73-.51 11.439-1.613l.06-.018 25.418-7.577c11.501-3.429 19.385-14.003 19.389-26.003 0-4.162-3.372-7.542-7.534-7.542z" fill="#e9efff"/><path d="m224.685 462.624s-.388-.571-1.08-1.584h-80.577c-6.112 0-11.085-4.973-11.085-11.085v-8.708h-48.414c20.356 17.854 43.694 32.382 69.172 42.753h77.734c-14.833-7.738-5.75-21.376-5.75-21.376z" fill="#d3dcfb"/><path d="m130.359 441.248v8.708c0 6.967 5.701 12.668 12.668 12.668h194.945c6.967 0 12.668-5.701 12.668-12.668v-8.708z" fill="#d3dcfb"/><path d="m215.26 449.845v-8.597h-84.901v8.708c0 6.967 5.701 12.668 12.668 12.668h81.658c-5.444-1.697-9.425-6.796-9.425-12.779z" fill="#bec8f7"/></g></svg>