<svg height="512" viewBox="0 0 512 512" width="512" xmlns="http://www.w3.org/2000/svg"><g id="flat"><path d="m256 208v-64h-20a20 20 0 0 1 -20-20 20 20 0 0 1 20-20h20l-12-12a16.971 16.971 0 0 1 0-24 16.971 16.971 0 0 1 24 0l12 12v-16a24 24 0 0 1 24-24 24 24 0 0 1 24 24v16l12-12a16.971 16.971 0 0 1 24 0 16.971 16.971 0 0 1 0 24l-12 12h20a20 20 0 0 1 20 20 20 20 0 0 1 -20 20h-20v64z" fill="#5eae35"/><path d="m312 144a40 40 0 0 0 -40 40v8h80v-8a40 40 0 0 0 -40-40z" fill="#fb0200"/><path d="m136 200v-136a40 40 0 0 1 40-40 40 40 0 0 1 40 40v136z" fill="#ff8706"/><path d="m120 184h64v256h-64z" fill="#aa8561"/><path d="m120 440 32-32 32 32z" fill="#9f785b"/><path d="m184 184h-32v224l32 32h8v-256z" fill="#bb9063"/><g fill="#ffa646"><path d="m160 80h32v16h-32z"/><path d="m160 112h32v16h-32z"/><path d="m160 144h32v16h-32z"/></g><path d="m184 184h184v256h-184z" fill="#d0b288"/><path d="m272 120v-16a16.019 16.019 0 0 0 16-16h16a32.036 32.036 0 0 1 -32 32z" fill="#008c02"/><path d="m344 128a32.036 32.036 0 0 1 -32-32h16a16.019 16.019 0 0 0 16 16z" fill="#008c02"/><path d="m200 144a40 40 0 0 0 40 40h16a16 16 0 0 0 16-16 40 40 0 0 0 -40-40h-16a16 16 0 0 0 -16 16z" fill="#ffc933"/><path d="m228 288h-24a12 12 0 0 0 0-24h-84l28.686-28.686a11.314 11.314 0 0 0 3.314-8 11.313 11.313 0 0 0 -11.314-11.314 34.291 34.291 0 0 0 -22.318 8.256l-46.368 39.744h-56v80h56l56 16 56.556-7.07a8.5 8.5 0 0 0 -1.056-16.93h28.5a12 12 0 0 0 0-24h16a12 12 0 0 0 0-24z" fill="#f9cdaf"/><rect fill="#e5a173" height="8" rx="4" width="64" x="144" y="284"/><rect fill="#e5a173" height="8" rx="4" width="72" x="144" y="308"/><rect fill="#e5a173" height="8" rx="4" width="48" x="144" y="332"/><path d="m184.571 404.687c-.191 0-.38-.007-.571-.008v35.321h184v-152.157a202.358 202.358 0 0 1 -183.429 116.844z" fill="#ad8f6c"/><path d="m496 408h-88l-35.029-35.029a16.972 16.972 0 0 0 -12-4.971 16.971 16.971 0 0 0 -16.971 16.971v1.372a16.964 16.964 0 0 0 3.395 10.182l18.318 24.411a11.423 11.423 0 0 1 2.287 6.858v.188a12.006 12.006 0 0 1 -12 12.018h-107.274a16.725 16.725 0 0 0 -16.726 16.726 16.726 16.726 0 0 0 15.211 16.657l139.1 12.646a160.005 160.005 0 0 0 43.108-1.924l66.581-12.105z" fill="#f9cdaf"/><path d="m347.982 448a20.018 20.018 0 0 0 20.018-20.018 12.006 12.006 0 0 1 -12 12.018h-107.274a16.7 16.7 0 0 0 -14.25 8z" fill="#eabb9b"/></g></svg>