<svg height="512" viewBox="0 0 512 512" width="512" xmlns="http://www.w3.org/2000/svg">
    <path d="m216 160c0 22.056 17.944 40 40 40s40-17.944 40-40-17.944-40-40-40-40 17.944-40 40zm60 0c0 11.028-8.972 20-20 20s-20-8.972-20-20 8.972-20 20-20 20 8.972 20 20z"/>
    <path d="m126 190c0 70.843 57.431 130 130 130 72.556 0 130-59.148 130-130 0-71.683-58.317-130-130-130s-130 58.317-130 130zm80 97.986v-7.986c0-27.57 22.43-50 50-50s50 22.43 50 50v7.986c-15.393 7.866-32.557 12.014-50 12.014s-34.607-4.148-50-12.014zm160-97.986c0 33.082-15.054 64.28-40.198 85-2.575-36.27-32.887-65-69.802-65s-67.227 28.729-69.802 65c-25.143-20.718-40.198-51.917-40.198-85 0-60.654 49.346-110 110-110s110 49.346 110 110z"/>
    <path d="m66 190c0 88.853 60.728 161.216 139.634 182.993l17.295 30.689c-35.924 3.738-96.929 18.011-96.929 53.318 0 32.249 51.852 46.825 83.619 51.634 5.493.824 10.562-2.954 11.385-8.391.826-5.461-2.931-10.558-8.391-11.385-43.267-6.548-66.613-21.301-66.613-31.858 0-11.719 31.163-30.109 87.704-34.197l13.584 24.105c1.772 3.146 5.102 5.092 8.712 5.092s6.94-1.946 8.712-5.092l13.584-24.105c56.541 4.088 87.704 22.478 87.704 34.197 0 10.557-23.346 25.31-66.613 31.858-5.46.827-9.217 5.924-8.391 11.385.822 5.427 5.882 9.216 11.385 8.391 31.763-4.809 83.619-19.384 83.619-51.634 0-35.296-60.969-49.576-96.929-53.317l17.295-30.689c78.842-21.76 139.634-94.055 139.634-182.994 0-104.767-85.233-190-190-190s-190 85.233-190 190zm360 0c0 77.958-52.925 145.686-128.703 164.701-2.661.668-4.931 2.399-6.278 4.789l-27.07 48.029v.002l-7.949 14.107-35.019-62.138c-1.348-2.39-3.617-4.121-6.278-4.789-75.778-19.015-128.703-86.743-128.703-164.701 0-93.738 76.262-170 170-170s170 76.262 170 170z"/>
    <path d="m266 502c0-5.523-4.477-10-10-10s-10 4.477-10 10 4.477 10 10 10 10-4.477 10-10z"/>
</svg>
