<?xml version="1.0" encoding="UTF-8"?>
<svg width="228px" height="37px" viewBox="0 0 228 37" version="1.1" xmlns="http://www.w3.org/2000/svg" xmlns:xlink="http://www.w3.org/1999/xlink">
    <!-- Generator: Sketch 63.1 (92452) - https://sketch.com -->
    <title>Group 8</title>
    <desc>Created with Sketch.</desc>
    <g id="Page-1" stroke="none" stroke-width="1" fill="none" fill-rule="evenodd">
        <g id="Artboard" transform="translate(-21.000000, -112.000000)" fill="#A4D96C">
            <g id="Group-8" transform="translate(21.000000, 109.000000)">
                <g id="bacteria-copy-2" transform="translate(0.000000, 3.000000)" fill-rule="nonzero">
                    <path d="M17.3436595,26.3329574 C17.0101963,26.3329574 16.74,26.6031537 16.74,26.9366169 C16.74,27.2698037 17.0101963,27.54 17.3436595,27.54 C22.6740964,27.5336457 26.9936457,23.2140965 27,17.8836594 C27,17.5501963 26.7298037,17.28 26.3966169,17.28 C26.0631537,17.28 25.7929574,17.5501963 25.7929574,17.8836594 C25.7879845,22.547999 22.007999,26.3279845 17.3436595,26.3329574 Z" id="Path"></path>
                    <path d="M19.710136,16.74 C21.3503319,16.74 22.68,15.4101208 22.68,13.77 C22.68,12.1298792 21.3503319,10.8 19.710136,10.8 C18.0696682,10.8 16.74,12.1298792 16.74,13.77 C16.7419034,15.4093051 18.0704839,16.7378248 19.710136,16.74 Z M19.710136,11.9879457 C20.6941992,11.9879457 21.492,12.7859819 21.492,13.77 C21.492,14.7540181 20.6941992,15.5520544 19.710136,15.5520544 C18.7258009,15.5520544 17.9280001,14.7540181 17.9280001,13.77 C17.9280001,12.7859819 18.7258009,11.9879457 19.710136,11.9879457 Z" id="Shape"></path>
                    <path d="M12.15,12.96 C10.8079103,12.96 9.72,14.0481261 9.72,15.3901391 C9.72,16.732152 10.8079103,17.82 12.15,17.82 C13.4920897,17.82 14.58,16.732152 14.58,15.3901391 C14.58,14.0481261 13.4920897,12.96 12.15,12.96 L12.15,12.96 Z M12.15,16.6050695 C11.4789551,16.6050695 10.935,16.0611455 10.935,15.3901391 C10.935,14.7191325 11.4789551,14.1752086 12.15,14.1752086 C12.8210449,14.1752086 13.3649999,14.7191325 13.3649999,15.3901391 C13.3649999,16.0611455 12.8210449,16.6050695 12.15,16.6050695 Z" id="Shape"></path>
                    <path d="M19.98,21.329861 C19.98,19.987848 18.8918739,18.9 17.5501391,18.9 C16.2081261,18.9 15.12,19.987848 15.12,21.329861 C15.12,22.6718738 16.2081261,23.76 17.5501391,23.76 C18.8918739,23.76 19.98,22.6718738 19.98,21.329861 L19.98,21.329861 Z M16.3349305,21.329861 C16.3349305,20.6588545 16.8791325,20.1149304 17.5501391,20.1149304 C18.2211455,20.1149304 18.7650695,20.6588545 18.7650695,21.329861 C18.7650695,22.0008674 18.2211455,22.5447914 17.5501391,22.5447914 C16.8791325,22.5447914 16.3349305,22.0008674 16.3349305,21.329861 L16.3349305,21.329861 Z" id="Shape"></path>
                    <path d="M10.5949507,20.5604131 C10.5294438,20.5876793 10.4691279,20.6263478 10.4167223,20.6739397 C10.318091,20.7777993 10.2622247,20.9151219 10.26,21.0583936 C10.2609888,21.1292857 10.2755734,21.1991865 10.3032593,21.2643775 C10.3292149,21.3305601 10.3677775,21.3912894 10.4167223,21.4428473 C10.4691279,21.4906872 10.5294438,21.5291078 10.5949507,21.5566219 C10.6597162,21.5843839 10.7294255,21.5990085 10.8001236,21.6 C10.9430029,21.5977691 11.0799496,21.5417494 11.1835248,21.4428473 C11.2322225,21.3912894 11.2707851,21.3305601 11.2967407,21.2643775 C11.3244266,21.1991865 11.3392584,21.1292857 11.34,21.0583936 C11.3380224,20.9151219 11.2821561,20.7777993 11.1835248,20.6739397 C11.0268025,20.5232319 10.7961685,20.4786144 10.5949507,20.5604131 L10.5949507,20.5604131 Z" id="Path"></path>
                    <path d="M13.8347036,24.3404043 C13.7694438,24.3679186 13.709128,24.4063396 13.6564752,24.4541798 C13.5580911,24.5577923 13.5019776,24.6951161 13.5,24.8386369 C13.5007416,24.9092818 13.5155734,24.9791831 13.5432593,25.0443747 C13.5692149,25.1105578 13.6077776,25.1712876 13.6564752,25.2230939 C13.709128,25.2706863 13.7694438,25.309355 13.8347036,25.3366215 C13.8997162,25.3643837 13.9694255,25.3792564 14.0398764,25.38 C14.183003,25.378017 14.3199497,25.3217489 14.4232776,25.2230939 C14.4722225,25.1712876 14.5107851,25.1105578 14.5367407,25.0443747 C14.5644266,24.9791831 14.5790112,24.9092818 14.58,24.8386369 C14.5777752,24.6951161 14.5219089,24.5577923 14.4232776,24.4541798 C14.2665553,24.3032228 14.0361685,24.258605 13.8347036,24.3404043 L13.8347036,24.3404043 Z" id="Path"></path>
                    <path d="M33.7690799,15.6793703 C32.6729805,15.6832328 31.7173429,16.4262171 31.4433181,17.4873081 L29.5185211,17.4873081 C29.3821986,14.713463 28.2872029,12.073151 26.4198049,10.016908 L27.7659209,8.67109373 C29.0568458,9.52416006 30.7840579,9.26150833 31.7628758,8.06302186 C32.7414177,6.86481127 32.6536635,5.12005342 31.5594958,4.02613098 C30.465328,2.93220861 28.7204547,2.84447414 27.5216994,3.82279662 C26.3232201,4.80139505 26.0602335,6.52821984 26.9134912,7.81885509 L25.5704106,9.16466928 C23.5131545,7.29713825 20.8708704,6.2021123 18.0952994,6.06664799 L18.0952994,4.74511254 C19.2711503,4.44162839 20.0374816,3.31128786 19.8846017,2.10700762 C19.7317218,0.902727377 18.7068191,0 17.4926103,0 C16.2781254,0 15.2534987,0.902727377 15.1003428,2.10700762 C14.9474629,3.31128786 15.7140702,4.44162839 16.8896452,4.74511254 L16.8896452,6.06664799 C14.115178,6.20294 11.4739977,7.29796595 9.41756946,9.16466928 L8.07145334,7.81885509 C8.92305531,6.52987517 8.66006873,4.80580936 7.46324516,3.82886634 C6.26642151,2.85219912 4.52403184,2.93993366 3.43151981,4.0322007 C2.33900778,5.12446773 2.25125363,6.86646668 3.22813985,8.06302186 C4.205302,9.259853 5.92975451,9.52250473 7.21902355,8.67109373 L8.56513967,10.016908 C6.69801757,12.073151 5.60274601,14.713463 5.46642343,17.4873081 L4.13189759,17.4873081 C3.83248467,16.4836032 2.84180067,15.8515286 1.80530784,16.0027189 C0.768538995,16.1539091 0,17.0425659 0,18.0901379 C0,19.1374341 0.768538995,20.0260909 1.80530784,20.1772812 C2.84180067,20.3287474 3.83248467,19.6963968 4.13189759,18.6926919 L5.46642343,18.6926919 C5.60191812,21.4676406 6.69718975,24.109332 8.56513967,26.1661269 L7.21902355,27.512217 C5.92809881,26.6588748 4.2008867,26.9218024 3.22206877,28.120013 C2.24352685,29.3184995 2.331281,31.0629815 3.4254488,32.1569039 C4.51961654,33.2508263 6.26476581,33.3388367 7.46324516,32.3602382 C8.66172443,31.3819157 8.92471109,29.6548151 8.07145334,28.3641798 L9.41756946,27.0183655 C11.4745497,28.8842412 14.1154539,29.9781636 16.8896452,30.113352 L16.8896452,31.4351634 C15.7140702,31.7386476 14.9474629,32.8687121 15.1003428,34.0729924 C15.2534987,35.2775485 16.2781254,36.18 17.4926103,36.18 C18.7068191,36.18 19.7317218,35.2775485 19.8846017,34.0729924 C20.0374816,32.8687121 19.2711503,31.7386476 18.0952994,31.4351634 L18.0952994,30.113352 C20.8708704,29.9778877 23.5131545,28.8828618 25.5704106,27.0153307 L26.9165267,28.3614209 C26.063269,29.6517802 26.3262556,31.3788809 27.524735,32.3572034 C28.7232143,33.3358018 30.4683636,33.2477914 31.5625313,32.153869 C32.656699,31.0599467 32.7444533,29.3154646 31.7659113,28.1169781 C30.7870934,26.9187675 29.0598813,26.6561158 27.7689565,27.5091821 L26.4198049,26.1661269 C28.2877548,24.109332 29.3830264,21.4676406 29.5185211,18.6926919 L31.4433181,18.6926919 C31.7587364,19.902766 32.9483852,20.6697532 34.1810831,20.4575902 C35.4135051,20.2454271 36.2783529,19.1250189 36.1710058,17.8790785 C36.0633828,16.6334141 35.0197151,15.677439 33.7690799,15.6793703 Z M28.1495006,4.87892144 C28.6666432,4.3616189 29.4445647,4.20684201 30.1203824,4.48659924 C30.7962,4.76635641 31.2369026,5.42574465 31.2369026,6.15714145 C31.2369026,6.88853825 30.7962,7.54792656 30.1203824,7.82768372 C29.4445647,8.10744089 28.6666432,7.95266399 28.1495006,7.43563741 C27.8089702,7.09711462 27.6174564,6.63719818 27.6174564,6.15714145 C27.6174564,5.67736059 27.8089702,5.21716834 28.1495006,4.87892144 Z M16.2866801,2.41987221 C16.2866801,1.75413838 16.8267271,1.21448832 17.4926103,1.21448832 C18.1584934,1.21448832 18.6982645,1.75413838 18.6982645,2.41987221 C18.6982645,3.08560605 18.1584934,3.62525603 17.4926103,3.62525603 C16.8267271,3.62525603 16.2866801,3.08560605 16.2866801,2.41987221 L16.2866801,2.41987221 Z M4.27843047,7.43563741 C3.76101198,6.91833487 3.6062003,6.14058777 3.88602028,5.46492173 C4.16584019,4.78925568 4.8253764,4.34865183 5.55693718,4.34865183 C6.28849804,4.34865183 6.94803424,4.78925568 7.22785416,5.46492173 C7.50767414,6.14058777 7.35286253,6.91833487 6.83544397,7.43563741 C6.12927112,8.14137595 4.98460332,8.14137595 4.27843047,7.43563741 Z M2.12017425,18.9942448 C1.62069285,18.9942448 1.21586463,18.5892314 1.21586463,18.0901379 C1.21586463,17.5907686 1.62069285,17.1860311 2.12017425,17.1860311 C2.61965566,17.1860311 3.02448387,17.5907686 3.02448387,18.0901379 C3.02448387,18.5892314 2.61965566,18.9942448 2.12017425,18.9942448 Z M6.83544397,31.3013545 C6.31830134,31.8183811 5.54037986,31.973158 4.8645622,31.6934008 C4.18874461,31.4136436 3.748042,30.7542554 3.748042,30.0228586 C3.748042,29.2914618 4.18874461,28.6323494 4.8645622,28.3523163 C5.54037986,28.0725591 6.31830134,28.227336 6.83544397,28.7446385 C7.54161675,29.450653 7.54161675,30.59534 6.83544397,31.3013545 L6.83544397,31.3013545 Z M18.6982645,33.7604037 C18.6982645,34.4261376 18.1584934,34.9657876 17.4926103,34.9657876 C16.8267271,34.9657876 16.2866801,34.4261376 16.2866801,33.7604037 C16.2866801,33.0946698 16.8267271,32.5550199 17.4926103,32.5550199 C18.1584934,32.5550199 18.6982645,33.0946698 18.6982645,33.7604037 Z M29.4285593,28.2154698 C30.2914754,28.2157485 31.0337985,28.8254757 31.2018561,29.6716446 C31.3696377,30.5178136 30.916241,31.3648103 30.1190025,31.6945044 C29.3214881,32.0241985 28.4022768,31.7447172 27.9234922,31.0271152 C27.4444316,30.3095131 27.5393606,29.353538 28.1500525,28.7440867 C28.4889272,28.4047363 28.9489467,28.2146448 29.4285593,28.2154698 L29.4285593,28.2154698 Z M17.4926103,28.9385924 C11.4996617,28.9385924 6.64144649,24.0814667 6.64144649,18.0901379 C6.64144649,12.0985333 11.4996617,7.24140756 17.4926103,7.24140756 C23.4852828,7.24140756 28.3434981,12.0985333 28.3434981,18.0901379 C28.3365992,24.0787078 23.4825233,28.9316951 17.4926103,28.9385924 Z M33.7690799,19.2955218 C33.1031968,19.2955218 32.5634258,18.7558718 32.5634258,18.0901379 C32.5634258,17.4244041 33.1031968,16.8847541 33.7690799,16.8847541 C34.4349631,16.8847541 34.9747341,17.4244041 34.9747341,18.0901379 C34.9747341,18.7558718 34.4349631,19.2955218 33.7690799,19.2955218 Z" id="Shape"></path>
                </g>
                <text id="pimpampum" font-family="Roboto-MediumItalic, Roboto" font-size="30" font-style="italic" font-weight="500" letter-spacing="1.4">
                    <tspan x="52" y="28">pimpampum</tspan>
                </text>
            </g>
        </g>
    </g>
</svg>