<svg id="&#x421;&#x43B;&#x43E;&#x439;_2" height="512" viewBox="0 0 512 512" width="512" xmlns="http://www.w3.org/2000/svg"><path d="m235.74 160.92a5.79 5.79 0 1 0 5.79 5.79 5.79 5.79 0 0 0 -5.79-5.79z"/><path d="m222.69 127.77h30.36v7.18h-30.36z"/><path d="m263.36 325.8h7.18v5.41h-7.18z"/><path d="m246.49 222.14h7.18v5.41h-7.18z"/><path d="m220.82 222.14h7.18v5.41h-7.18z"/><path d="m234.55 208.42h5.4v7.18h-5.4z"/><path d="m234.55 234.08h5.4v7.18h-5.4z"/><path d="m304.5 222.14h7.18v5.41h-7.18z"/><path d="m278.83 222.14h7.18v5.41h-7.18z"/><path d="m292.55 208.42h5.41v7.18h-5.41z"/><path d="m292.55 234.08h5.41v7.18h-5.41z"/><path d="m274.82 295.02-5.07-5.08-11.04 11.05h-5.34v7.18h27.15v-7.18h-11.66z"/><path d="m465.13 285.81c0-7-6.28-10.35-10.44-12.55-.62-.33-1.2-.64-1.72-.93-2.92-1.69-3.32-3-3.31-4.19v-2.14c0-1.16.39-2.46 3.31-4.15.52-.31 1.11-.62 1.74-.95 4.15-2.2 10.43-5.53 10.43-12.55v-10.1h5.17v-18.79h-22.79v-56.46l-118.66-68.48a40.62 40.62 0 0 0 -40.35-36.36h-43.13a40.61 40.61 0 0 0 -40.38 37.15l-117.31 67.69v56.91a49.19 49.19 0 0 0 0 98.25v52.58l67.31 38.86-7.11 4.07 3.57 6.23 10.75-6.15 85.75 49.51 19.65 11.35 104.78-60.49 10.09 5.77 3.57-6.23-6.46-3.66 67.93-39.22v-56.2h22.78v-18.76h-5.16zm-13.8-6.2c2.54 1.34 4.64 2.57 5.76 4l-28 5.76v-3.55c0-2.51 2.87-4.23 6.62-6.21.71-.37 1.37-.72 2-1.07a14.18 14.18 0 0 0 5.82-5.68 14.08 14.08 0 0 0 5.82 5.69c.65.33 1.28.68 1.98 1.05zm6.17-29.66-24 3.34c-2.58-1.51-4.37-3-4.37-5v-10.19h28.87v10.22a3.29 3.29 0 0 1 -.5 1.62zm5.62-19h-39.12v-4.27h39.16zm-254.63 156.3-.22.37 30.83 18.27 14.47-15.75 4.86 13.31-14.89 49-54.44-31.45v-22.65zm-12.87-216.85a5.68 5.68 0 0 1 5.68-5.68h3.52v23.09l-3.29-3.29-5.08 5.08 8.37 8.37v53h-3.52a5.69 5.69 0 0 1 -5.68-5.68zm40.16 194.86v-22.26a40.38 40.38 0 0 0 9.59 1.2h43.14a40.42 40.42 0 0 0 9.6-1.2v22.28zm30 38.52h3l3.79 12.48-12.83 7.46zm4.65-7.18h-6.91l-.88-2.42 11.12-6.59zm-10.3-9.29-1.13-3.13 9.06-9.86 4.94 5.38zm57.07-220.56a18.8 18.8 0 1 1 -37.6 0c0-.24 0-.47 0-.71h13a6 6 0 0 0 -.07.71 5.79 5.79 0 1 0 11.59 0 5.37 5.37 0 0 0 -.07-.71h13c.18.24.2.47.2.71zm-42.13-11.36h-16a25.93 25.93 0 0 0 -43.2-5.39v-29.14h32.73c14.19 0 26.74-10.53 34.42-24a42.29 42.29 0 0 0 35.47 23.89v29.5a25.94 25.94 0 0 0 -43.37 5.16zm-13 13.61v-6.39h8.11v6.39zm-7.52-2.25a18.81 18.81 0 1 1 -18.8-18.8 18.82 18.82 0 0 1 18.8 18.76zm26.87-7.85a18.76 18.76 0 0 1 34.08 0zm7.1 178.1h-43.14a33.42 33.42 0 0 1 -33.38-33.4v-126.38a26 26 0 0 0 47.93-1.07h2.19v102.85h17.23v-3.59a1.43 1.43 0 1 1 2.86 0v2.7h7.18v-2.7a8.61 8.61 0 0 0 -16.44-3.59h-3.65v-95.67h4.95a25.93 25.93 0 0 0 47.65 1.72v125.73a33.42 33.42 0 0 1 -33.38 33.4zm-54.15 35.45h25.69l-22.31 24.3-22.52-13.35zm22.33 61.37 18-10.49 4.18 13.76-28.16 16.29zm19.24-31.25 5.18-14.06 16 17.39 29.88-17.73 17.8 10.18v23.42l-53.61 31zm22.5-5.82-22.31-24.3h23.39l20.31 11.62zm30.64-198.75 8.37-8.37-5.08-5.08-3.29 3.29v-23.11h3.52a5.68 5.68 0 0 1 5.68 5.68v74.91a5.69 5.69 0 0 1 -5.68 5.68h-3.52zm-280.93 71.05a42.07 42.07 0 0 1 82.26-12.43l.39 1.27 17.65 11.17-17.65 11.16-.39 1.27a42.07 42.07 0 0 1 -82.26-12.44zm46.72 97.56v-48.54a48.92 48.92 0 0 0 42-33.18l25-15.84-25-15.83a48.93 48.93 0 0 0 -42-33.18v-52.87l109.94-63.47v53.85h-29.28a26 26 0 1 0 0 52v-7.18a18.8 18.8 0 1 1 0-37.6h14.29a12.69 12.69 0 0 0 -1.38 5.68v74.91a12.88 12.88 0 0 0 12.86 12.87h3.52v45.37a40.53 40.53 0 0 0 .91 8.51v45.33h22.87v10l-66.42 38zm87 35.84v14.41l-12.53-7.24zm73.21 56.68 25.94-15 3.73 12.28-17.2 9.93zm96.92-41.5v-15.17l13.2 7.55zm88.36-51-68 39.24-67.08-38.38v-10h22.77v-44.98a40.4 40.4 0 0 0 1-8.91v-45.41h3.52a12.88 12.88 0 0 0 12.86-12.87v-74.92a12.87 12.87 0 0 0 -12.86-12.86h-3.52v-54.6l111.25 64.23v52.29h-23.52v18.75h5.17v10.1c0 7 6.28 10.35 10.44 12.55.62.33 1.21.64 1.74.94 2.93 1.69 3.34 3 3.35 4.17v2.13c0 1.18-.42 2.51-3.34 4.2-.52.3-1.11.61-1.72.94-4.17 2.2-10.46 5.52-10.45 12.56v10h-5.17v18.76h23.55zm-16.36-59.23v-4.18h39.15v4.19z"/><path d="m71.4 265.46h39.71v7.18h-39.71z" transform="matrix(.414 -.91 .91 .414 -191.43 240.69)"/><path d="m73.62 254.54-18.06 14.51 18.06 14.52 4.5-5.6-11.09-8.92 11.09-8.91z"/><path d="m110.81 283.57 18.06-14.52-18.06-14.51-4.5 5.6 11.09 8.91-11.09 8.92z"/></svg>