<?xml version="1.0" encoding="UTF-8"?>
<svg width="78px" height="53px" viewBox="0 0 78 53" version="1.1" xmlns="http://www.w3.org/2000/svg" xmlns:xlink="http://www.w3.org/1999/xlink">
    <!-- Generator: Sketch 57.1 (83088) - https://sketch.com -->
    <title>Group 14</title>
    <desc>Created with Sketch.</desc>
    <g id="Page-1" stroke="none" stroke-width="1" fill="none" fill-rule="evenodd">
        <g id="Artboard" transform="translate(-493.000000, -1247.000000)">
            <g id="Group-14" transform="translate(492.000000, 1247.000000)">
                <g id="Group-3-Copy-6" transform="translate(0.000000, 37.000000)" fill="#A4D96C" font-size="14">
                    <text id="PADEL-Copy-9" font-family="BrandonGrotesque-Regular, Brandon Grotesque" font-weight="normal">
                        <tspan x="0" y="15">PADEL</tspan>
                    </text>
                    <text id="NOW-Copy-10" font-family="BrandonGrotesque-Bold, Brandon Grotesque" font-weight="bold" letter-spacing="0.3">
                        <tspan x="44" y="15">NOW</tspan>
                    </text>
                </g>
                <g id="Group-2-Copy-42" transform="translate(27.000000, 0.000000)">
                    <path d="M13,36 C21.6666667,25.7142857 26,18 26,12.8571429 C26,5.14285714 20.1797017,0 13,0 C5.82029825,0 0,5.14285714 0,12.8571429 C0,18 4.33333333,25.7142857 13,36 Z" id="Oval" fill="#A4D96C"></path>
                    <g id="Group" transform="translate(6.000000, 6.000000)" fill="#FFFFFF">
                        <circle id="Oval" cx="10.883808" cy="0.837216" r="1"></circle>
                        <circle id="Oval-Copy-6" cx="10.883808" cy="7.534944" r="1"></circle>
                        <circle id="Oval-Copy-18" cx="14.232672" cy="7.534944" r="1"></circle>
                        <circle id="Oval-Copy-3" cx="10.883808" cy="4.18608" r="1"></circle>
                        <circle id="Oval-Copy-19" cx="14.232672" cy="4.18608" r="1"></circle>
                        <circle id="Oval-Copy-7" cx="10.883808" cy="10.883808" r="1"></circle>
                        <circle id="Oval-Copy-20" cx="14.232672" cy="10.883808" r="1"></circle>
                        <circle id="Oval-Copy-12" cx="10.883808" cy="14.232672" r="1"></circle>
                        <circle id="Oval-Copy" cx="7.534944" cy="0.837216" r="1"></circle>
                        <circle id="Oval-Copy-8" cx="7.534944" cy="7.534944" r="1"></circle>
                        <circle id="Oval-Copy-4" cx="7.534944" cy="4.18608" r="1"></circle>
                        <circle id="Oval-Copy-9" cx="7.534944" cy="10.883808" r="1"></circle>
                        <circle id="Oval-Copy-13" cx="7.534944" cy="14.232672" r="1"></circle>
                        <circle id="Oval-Copy-2" cx="4.18608" cy="0.837216" r="1"></circle>
                        <circle id="Oval-Copy-10" cx="4.18608" cy="7.534944" r="1"></circle>
                        <circle id="Oval-Copy-15" cx="0.837216" cy="7.534944" r="1"></circle>
                        <circle id="Oval-Copy-5" cx="4.18608" cy="4.18608" r="1"></circle>
                        <circle id="Oval-Copy-16" cx="0.837216" cy="4.18608" r="1"></circle>
                        <circle id="Oval-Copy-11" cx="4.18608" cy="10.883808" r="1"></circle>
                        <circle id="Oval-Copy-17" cx="0.837216" cy="10.883808" r="1"></circle>
                        <circle id="Oval-Copy-14" cx="4.18608" cy="14.232672" r="1"></circle>
                    </g>
                </g>
            </g>
        </g>
    </g>
</svg>