<?xml version="1.0" encoding="UTF-8"?>
<svg width="41px" height="58px" viewBox="0 0 41 58" version="1.1" xmlns="http://www.w3.org/2000/svg" xmlns:xlink="http://www.w3.org/1999/xlink">
    <!-- Generator: Sketch 57.1 (83088) - https://sketch.com -->
    <title>Group 10</title>
    <desc>Created with Sketch.</desc>
    <g id="Page-1" stroke="none" stroke-width="1" fill="none" fill-rule="evenodd">
        <g id="Artboard" transform="translate(-369.000000, -1144.000000)">
            <g id="Group-10" transform="translate(368.000000, 1144.000000)">
                <text id="PADEL-Copy-25" font-family="Barlow-Regular, Barlow" font-size="14" font-weight="normal" fill="#017069">
                    <tspan x="0" y="44">PADEL</tspan>
                </text>
                <text id="NOW-Copy-26" font-family="Barlow-SemiBold, Barlow SemiBold" font-size="14" font-weight="500" letter-spacing="0.3" fill="#017069">
                    <tspan x="5" y="57">NOW</tspan>
                </text>
                <g id="Group-2-Copy-38" transform="translate(11.000000, 0.000000)">
                    <path d="M10.4,28.8 C17.3333333,20.5714286 20.8,14.4 20.8,10.2857143 C20.8,4.11428571 16.1437614,0 10.4,0 C4.6562386,0 0,4.11428571 0,10.2857143 C0,14.4 3.46666667,20.5714286 10.4,28.8 Z" id="Oval" fill="#017069"></path>
                    <g id="Group" transform="translate(4.800000, 4.800000)" fill="#FFFFFF">
                        <circle id="Oval" cx="8.7070464" cy="0.6697728" r="1"></circle>
                        <circle id="Oval-Copy-6" cx="8.7070464" cy="6.0279552" r="1"></circle>
                        <circle id="Oval-Copy-18" cx="11.3861376" cy="6.0279552" r="1"></circle>
                        <circle id="Oval-Copy-3" cx="8.7070464" cy="3.348864" r="1"></circle>
                        <circle id="Oval-Copy-19" cx="11.3861376" cy="3.348864" r="1"></circle>
                        <circle id="Oval-Copy-7" cx="8.7070464" cy="8.7070464" r="1"></circle>
                        <circle id="Oval-Copy-20" cx="11.3861376" cy="8.7070464" r="1"></circle>
                        <circle id="Oval-Copy-12" cx="8.7070464" cy="11.3861376" r="1"></circle>
                        <circle id="Oval-Copy" cx="6.0279552" cy="0.6697728" r="1"></circle>
                        <circle id="Oval-Copy-8" cx="6.0279552" cy="6.0279552" r="1"></circle>
                        <circle id="Oval-Copy-4" cx="6.0279552" cy="3.348864" r="1"></circle>
                        <circle id="Oval-Copy-9" cx="6.0279552" cy="8.7070464" r="1"></circle>
                        <circle id="Oval-Copy-13" cx="6.0279552" cy="11.3861376" r="1"></circle>
                        <circle id="Oval-Copy-2" cx="3.348864" cy="0.6697728" r="1"></circle>
                        <circle id="Oval-Copy-10" cx="3.348864" cy="6.0279552" r="1"></circle>
                        <circle id="Oval-Copy-15" cx="0.6697728" cy="6.0279552" r="1"></circle>
                        <circle id="Oval-Copy-5" cx="3.348864" cy="3.348864" r="1"></circle>
                        <circle id="Oval-Copy-16" cx="0.6697728" cy="3.348864" r="1"></circle>
                        <circle id="Oval-Copy-11" cx="3.348864" cy="8.7070464" r="1"></circle>
                        <circle id="Oval-Copy-17" cx="0.6697728" cy="8.7070464" r="1"></circle>
                        <circle id="Oval-Copy-14" cx="3.348864" cy="11.3861376" r="1"></circle>
                    </g>
                </g>
            </g>
        </g>
    </g>
</svg>