<?xml version="1.0" encoding="UTF-8"?>
<svg width="104px" height="144px" viewBox="0 0 104 144" version="1.1" xmlns="http://www.w3.org/2000/svg" xmlns:xlink="http://www.w3.org/1999/xlink">
    <!-- Generator: Sketch 57.1 (83088) - https://sketch.com -->
    <title>Group 2 Copy 23</title>
    <desc>Created with Sketch.</desc>
    <g id="Page-1" stroke="none" stroke-width="1" fill="none" fill-rule="evenodd">
        <g id="Artboard" transform="translate(-347.000000, -889.000000)">
            <g id="Group-2-Copy-23" transform="translate(347.000000, 889.000000)">
                <path d="M52,144 C86.6666667,102.857143 104,72 104,51.4285714 C104,20.5714286 80.718807,0 52,0 C23.281193,0 0,20.5714286 0,51.4285714 C0,72 17.3333333,102.857143 52,144 Z" id="Oval" fill="#A4D96C"></path>
                <g id="Group" transform="translate(24.000000, 24.000000)" fill="#FFFFFF">
                    <circle id="Oval" cx="43.535232" cy="3.348864" r="3.348864"></circle>
                    <circle id="Oval-Copy-6" cx="43.535232" cy="30.139776" r="3.348864"></circle>
                    <circle id="Oval-Copy-18" cx="56.930688" cy="30.139776" r="3.348864"></circle>
                    <circle id="Oval-Copy-3" cx="43.535232" cy="16.74432" r="3.348864"></circle>
                    <circle id="Oval-Copy-19" cx="56.930688" cy="16.74432" r="3.348864"></circle>
                    <circle id="Oval-Copy-7" cx="43.535232" cy="43.535232" r="3.348864"></circle>
                    <circle id="Oval-Copy-20" cx="56.930688" cy="43.535232" r="3.348864"></circle>
                    <circle id="Oval-Copy-12" cx="43.535232" cy="56.930688" r="3.348864"></circle>
                    <circle id="Oval-Copy" cx="30.139776" cy="3.348864" r="3.348864"></circle>
                    <circle id="Oval-Copy-8" cx="30.139776" cy="30.139776" r="3.348864"></circle>
                    <circle id="Oval-Copy-4" cx="30.139776" cy="16.74432" r="3.348864"></circle>
                    <circle id="Oval-Copy-9" cx="30.139776" cy="43.535232" r="3.348864"></circle>
                    <circle id="Oval-Copy-13" cx="30.139776" cy="56.930688" r="3.348864"></circle>
                    <circle id="Oval-Copy-2" cx="16.74432" cy="3.348864" r="3.348864"></circle>
                    <circle id="Oval-Copy-10" cx="16.74432" cy="30.139776" r="3.348864"></circle>
                    <circle id="Oval-Copy-15" cx="3.348864" cy="30.139776" r="3.348864"></circle>
                    <circle id="Oval-Copy-5" cx="16.74432" cy="16.74432" r="3.348864"></circle>
                    <circle id="Oval-Copy-16" cx="3.348864" cy="16.74432" r="3.348864"></circle>
                    <circle id="Oval-Copy-11" cx="16.74432" cy="43.535232" r="3.348864"></circle>
                    <circle id="Oval-Copy-17" cx="3.348864" cy="43.535232" r="3.348864"></circle>
                    <circle id="Oval-Copy-14" cx="16.74432" cy="56.930688" r="3.348864"></circle>
                </g>
            </g>
        </g>
    </g>
</svg>