<?xml version="1.0" encoding="UTF-8"?>
<svg width="61px" height="23px" viewBox="0 0 61 23" version="1.1" xmlns="http://www.w3.org/2000/svg" xmlns:xlink="http://www.w3.org/1999/xlink">
    <!-- Generator: Sketch 57.1 (83088) - https://sketch.com -->
    <title>Group 8</title>
    <desc>Created with Sketch.</desc>
    <g id="Page-1" stroke="none" stroke-width="1" fill="none" fill-rule="evenodd">
        <g id="Artboard" transform="translate(-506.000000, -1084.000000)">
            <g id="Group-8" transform="translate(506.000000, 1080.000000)">
                <text id="PADEL-Copy-23" font-family="Barlow-Regular, Barlow" font-size="14" font-weight="normal" fill="#A4D96C">
                    <tspan x="19" y="14">PADEL</tspan>
                </text>
                <text id="NOW-Copy-24" font-family="Barlow-SemiBold, Barlow SemiBold" font-size="14" font-weight="500" fill="#A4D96C">
                    <tspan x="19" y="26">NOW</tspan>
                </text>
                <g id="Group-2-Copy-36" transform="translate(0.000000, 4.000000)">
                    <path d="M7.8489,21.97692 C13.0815,15.6978 15.6978,10.98846 15.6978,7.8489 C15.6978,3.13956 12.1837278,0 7.8489,0 C3.51407223,0 0,3.13956 0,7.8489 C0,10.98846 2.6163,15.6978 7.8489,21.97692 Z" id="Oval" fill="#A4D96C"></path>
                    <g id="Group" transform="translate(3.139560, 3.139560)" fill="#FFFFFF">
                        <circle id="Oval" cx="6.80238" cy="0.52326" r="1"></circle>
                        <circle id="Oval-Copy-6" cx="6.80238" cy="4.70934" r="1"></circle>
                        <circle id="Oval-Copy-18" cx="8.89542" cy="4.70934" r="1"></circle>
                        <circle id="Oval-Copy-3" cx="6.80238" cy="2.6163" r="1"></circle>
                        <circle id="Oval-Copy-19" cx="8.89542" cy="2.6163" r="1"></circle>
                        <circle id="Oval-Copy-7" cx="6.80238" cy="6.80238" r="1"></circle>
                        <circle id="Oval-Copy-20" cx="8.89542" cy="6.80238" r="1"></circle>
                        <circle id="Oval-Copy-12" cx="6.80238" cy="8.89542" r="1"></circle>
                        <circle id="Oval-Copy" cx="4.70934" cy="0.52326" r="1"></circle>
                        <circle id="Oval-Copy-8" cx="4.70934" cy="4.70934" r="1"></circle>
                        <circle id="Oval-Copy-4" cx="4.70934" cy="2.6163" r="1"></circle>
                        <circle id="Oval-Copy-9" cx="4.70934" cy="6.80238" r="1"></circle>
                        <circle id="Oval-Copy-13" cx="4.70934" cy="8.89542" r="1"></circle>
                        <circle id="Oval-Copy-2" cx="2.6163" cy="0.52326" r="1"></circle>
                        <circle id="Oval-Copy-10" cx="2.6163" cy="4.70934" r="1"></circle>
                        <circle id="Oval-Copy-15" cx="0.52326" cy="4.70934" r="1"></circle>
                        <circle id="Oval-Copy-5" cx="2.6163" cy="2.6163" r="1"></circle>
                        <circle id="Oval-Copy-16" cx="0.52326" cy="2.6163" r="1"></circle>
                        <circle id="Oval-Copy-11" cx="2.6163" cy="6.80238" r="1"></circle>
                        <circle id="Oval-Copy-17" cx="0.52326" cy="6.80238" r="1"></circle>
                        <circle id="Oval-Copy-14" cx="2.6163" cy="8.89542" r="1"></circle>
                    </g>
                </g>
            </g>
        </g>
    </g>
</svg>