<svg height="512" viewBox="0 0 64 64" width="512" xmlns="http://www.w3.org/2000/svg"><g id="flat"><path d="m8 34h48v27h-48z" fill="#55b56a" transform="matrix(-1 0 0 -1 64 95)"/><path d="m12 34h40v23h-40z" fill="#e1e87e" transform="matrix(-1 0 0 -1 64 91)"/><path d="m12 41h40v16h-40z" fill="#c8d952"/><path d="m49 54h-5v-2h3v-3h2z" fill="#fff"/><path d="m20 54h-5v-5h2v3h3z" fill="#fff"/><path d="m31 51h2v2h-2z" fill="#fff"/><path d="m31 47h2v2h-2z" fill="#fff"/><path d="m8 3h48v27h-48z" fill="#55b56a"/><path d="m12 7h40v23h-40z" fill="#e1e87e"/><path d="m12 7h40v16h-40z" fill="#c8d952"/><g fill="#fff"><path d="m31 23h2v7h-2z"/><path d="m31 34h2v7h-2z"/><path d="m17 15h-2v-5h5v2h-3z"/><path d="m49 15h-2v-3h-3v-2h5z"/><path d="m31 11h2v2h-2z"/><path d="m31 15h2v2h-2z"/></g><path d="m3 30h58v4h-58z" fill="#50b4f8"/></g></svg>