<?xml version="1.0"?>
<svg xmlns="http://www.w3.org/2000/svg" xmlns:xlink="http://www.w3.org/1999/xlink" version="1.1" id="Capa_1" x="0px" y="0px" viewBox="0 0 493.447 493.447" style="enable-background:new 0 0 493.447 493.447;" xml:space="preserve" width="512px" height="512px"><g><g>
	<g>
		<path d="M190.561,299.603v45.846l-110.637-0.017v148.015h333.598v-118.08l-110.4,0.009v-75.763h0.014     M159.709,452.745h-50.003l0,0v-9.988l9.118-8.232c15.388-13.785,22.88-21.707,23.097-29.938c0-5.742-3.467-10.301-11.598-10.301    c-6.072,0-11.394,3.047-15.08,5.862l-4.671-11.833c5.323-4.022,13.561-7.274,23.111-7.274c15.946,0,24.734,9.327,24.734,22.141    c0,11.818-8.571,21.259-18.783,30.373l-6.494,5.423v0.222h26.575v13.552h-0.007v-0.007H159.709z M353.59,440.115h-6.721v-11.833    h6.395c5.529-0.101,12.586-2.174,12.586-8.127c0-4.208-3.473-7.365-10.422-7.365c-5.75,0-11.824,2.48-14.74,4.223l-3.371-11.938    c4.223-2.713,12.689-5.314,21.813-5.314c15.07,0,23.424,7.929,23.424,17.574c0,7.475-4.223,13.353-12.91,16.366v0.222    c8.471,1.535,15.318,7.93,15.318,17.12c-0.016,12.492-10.967,21.612-28.885,21.612c-9.102,0-16.811-2.392-20.916-4.996    l3.354-12.363c2.939,1.52,9.66,4.337,16.385,4.337c8.574,0,12.895-4.132,12.895-9.435    C367.786,443.258,360.844,440.115,353.59,440.115z M252.446,393.868L252.446,393.868H236.48v-55.894h-0.204l-13.463,6.41    l-2.712-12.389l18.658-8.666h13.687V393.868z" data-original="#010002" class="active-path" data-old_color="#010002" fill="#2F3333"/>
		<circle cx="129.74" cy="85.726" r="29.547" data-original="#010002" class="active-path" data-old_color="#010002" fill="#2F3333"/>
		<path d="M137.096,116.993l-7.356,7.402l-7.125-7.479c-0.038,0-0.053,0-0.076,0.008    c-2.18,1.462-5.142,2.916-8.473,4.223l17.921,30.232h1.701l-3.63-6.146l14.746-25.125    C142.331,118.781,139.765,117.642,137.096,116.993z" data-original="#010002" class="active-path" data-old_color="#010002" fill="#2F3333"/>
		<circle cx="129.74" cy="162.902" r="4.06" data-original="#010002" class="active-path" data-old_color="#010002" fill="#2F3333"/>
		<path d="M192.137,204.93c-6.642-45.194-16.603-65.41-40.231-80.832l-15.874,27.355v5.909h-1.337    c1.546,1.378,2.548,3.365,2.548,5.601c0,4.146-3.376,7.512-7.512,7.512c-4.147,0-7.519-3.361-7.519-7.512    c0-2.232,1.002-4.223,2.548-5.601h-1.694v-5.058l-16.911-28.543c-8.268,2.248-16.861,3.144-21.107,0.904    c-6.08-3.229-10.197-10.931-12.209-22.899c-1.052-6.251-6.968-10.44-13.223-9.4c-6.243,1.052-10.451,6.969-9.403,13.224    c3.266,19.363,11.378,32.609,24.104,39.354c5.855,3.104,12.429,4.646,19.562,4.646c1.826-0.009,3.718-0.168,5.62-0.373v58.688    c0,3.521,0.786,6.968,2.123,9.906l-0.061,110.377c0,7.489,6.069,13.561,13.557,13.561c7.489,0,13.554-6.068,13.554-13.561    l-0.007-94.251l1.921,0.01v94.241c0,7.489,6.076,13.561,13.558,13.561c7.496,0,13.557-6.068,13.557-13.561l-0.034-110.326    c1.462-3.04,2.305-8.462,2.305-12.143v-37.322c3.668,9.16,6.805,21.745,9.463,39.867c0.832,5.692,5.731,9.808,11.332,9.808    c0.551,0,1.128-0.037,1.686-0.125C188.729,217.036,193.056,211.203,192.137,204.93z" data-original="#010002" class="active-path" data-old_color="#010002" fill="#2F3333"/>
		<polygon points="134.008,153.419 133.176,153.419 133.057,153.499 125.095,153.499 125.095,155.328     134.008,155.328   " data-original="#010002" class="active-path" data-old_color="#010002" fill="#2F3333"/>
		<path d="M363.715,85.732c16.32,0,29.545,13.23,29.545,29.552c0,16.314-13.225,29.545-29.545,29.545    c-16.322,0-29.545-13.229-29.545-29.545C334.17,98.962,347.393,85.732,363.715,85.732z" data-original="#010002" class="active-path" data-old_color="#010002" fill="#2F3333"/>
		<path d="M370.914,146.474c-0.021-0.008-0.037-0.008-0.074-0.008l-7.125,7.481l-7.359-7.409    c-2.674,0.66-5.227,1.788-7.701,3.117l14.75,25.11l-3.631,6.146h1.701l17.924-30.232    C376.057,149.39,373.104,147.928,370.914,146.474z" data-original="#010002" class="active-path" data-old_color="#010002" fill="#2F3333"/>
		<path d="M363.707,188.395c2.23,0,4.057,1.815,4.057,4.055c0,2.234-1.824,4.053-4.057,4.053    s-4.059-1.815-4.059-4.053C359.653,190.21,361.475,188.395,363.707,188.395z" data-original="#010002" class="active-path" data-old_color="#010002" fill="#2F3333"/>
		<path d="M433.842,121.914c-6.27-1.052-12.168,3.146-13.217,9.396c-2.021,11.973-6.139,19.668-12.213,22.896    c-4.246,2.248-12.838,1.352-21.107-0.896l-16.914,28.535v5.063h-1.729c1.549,1.374,2.553,3.367,2.553,5.598    c0,4.146-3.365,7.515-7.514,7.515c-4.141,0-7.506-3.365-7.506-7.515c0-2.229,0.988-4.224,2.545-5.598h-1.336v-5.913    l-15.875-27.354c-23.637,15.415-33.594,35.64-40.238,80.828c-0.91,6.271,3.41,12.097,9.689,13.016    c0.557,0.092,1.125,0.127,1.688,0.127c5.576,0,10.488-4.097,11.332-9.813c2.645-18.114,5.789-30.695,9.465-39.856v37.32    c0,3.683,0.637,9.239,2.104,12.281c0,0.117-0.039,110.188-0.039,110.188c0,7.487,6.076,13.551,13.551,13.551    c7.488,0,13.564-6.063,13.564-13.551v-94.24l1.922-0.004l-0.008,94.245c0,7.487,6.066,13.55,13.559,13.55    c7.48,0,13.549-6.063,13.549-13.55l-0.055-110.185c1.338-2.934,2.318-8.639,2.318-12.159v-56.625    c1.898,0.201,3.799,0.365,5.645,0.365c7.123,0,13.693-1.55,19.561-4.66c12.721-6.737,20.832-19.979,24.1-39.354    C444.278,128.883,440.084,122.963,433.842,121.914z" data-original="#010002" class="active-path" data-old_color="#010002" fill="#2F3333"/>
		<polygon points="368.356,183.052 360.381,183.052 360.274,182.964 359.44,182.964 359.44,184.878     368.356,184.878   " data-original="#010002" class="active-path" data-old_color="#010002" fill="#2F3333"/>
		<g>
			<path d="M246.796,61.042c16.859,0,30.514-13.666,30.514-30.521C277.31,13.664,263.652,0,246.796,0     c-16.853,0-30.517,13.663-30.518,30.521C216.278,47.378,229.942,61.042,246.796,61.042z" data-original="#010002" class="active-path" data-old_color="#010002" fill="#2F3333"/>
			<circle cx="247.715" cy="116.384" r="4.835" data-original="#010002" class="active-path" data-old_color="#010002" fill="#2F3333"/>
			<path d="M254.394,62.813l-7.605,7.652l-7.356-7.732c-0.042,0-0.057,0-0.08,0.019     c-1.648,0.392-5.07,2.537-9.923,4.554l20.942,35.355h2.037l-4.333-7.318l16.851-28.702     C259.794,64.828,255.769,63.147,254.394,62.813z" data-original="#010002" class="active-path" data-old_color="#010002" fill="#2F3333"/>
			<path d="M321.042,37.931c-6.391-1.068-12.549,3.264-13.656,9.715     c-1.896,11.286-5.453,18.619-10.559,21.794c-5.193,3.432-14.035,2.342-22.359,0.155l-19.246,33.153v7.041h-1.594     c1.852,1.641,3.061,4.014,3.061,6.672c0,4.948-4.027,8.959-8.956,8.959c-4.949,0-8.962-4.022-8.962-8.959     c0-2.666,1.2-5.031,3.042-6.672h-2.044v-6.027l-19.867-33.528c-6.042,1.166-13.231,1.26-21.286-1.354     c-5.111-3.171-8.666-10.512-10.565-21.79c-1.086-6.456-7.208-10.797-13.656-9.714c-6.456,1.09-10.8,7.2-9.714,13.655     c3.103,18.544,10.128,30.951,21.418,37.984c7.079,4.389,14.864,6.014,22.812,6.014c2.21,0,4.436-0.154,6.649-0.386v62.06     c0,3.98,0.452,7.213,2.092,10.472l0.008,113.745c0,7.748,6.277,14.014,14.01,14.014c7.728,0,14.005-6.281,13.998-14.014     l-0.007-97.413l1.99,0.009v97.404c0,7.748,6.272,14.014,14.002,14.014c7.738,0,13.998-6.266,13.998-14.014l-0.107-113.801     c1.262-2.927,2.492-6.933,2.492-10.401V94.993c2.826,0.35,5.652,0.604,8.463,0.604c7.943,0,15.736-1.634,22.83-6.02     c11.287-7.01,18.307-19.438,21.436-37.983C331.851,45.135,327.497,39.021,321.042,37.931z" data-original="#010002" class="active-path" data-old_color="#010002" fill="#2F3333"/>
			<polygon points="252.792,105.078 251.804,105.078 251.656,105.175 242.178,105.175 242.178,107.355      252.792,107.355    " data-original="#010002" class="active-path" data-old_color="#010002" fill="#2F3333"/>
		</g>
	</g>
</g></g> </svg>
