<?xml version="1.0"?>
<svg xmlns="http://www.w3.org/2000/svg" id="Capa_1" enable-background="new 0 0 512 512" height="512px" viewBox="0 0 512 512" width="512px"><g><path d="m256 412c-27.57 0-50-22.43-50-50s22.43-50 50-50 50 22.43 50 50-22.431 50-50 50z" data-original="#000000" class="active-path" data-old_color="#000000" fill="#808080"/><path d="m427 352c-27.57 0-50-22.43-50-50s22.43-50 50-50 50 22.43 50 50-22.431 50-50 50z" data-original="#000000" class="active-path" data-old_color="#000000" fill="#808080"/><path d="m309.747 421.206c-14.213 12.914-33.077 20.794-53.747 20.794s-39.534-7.88-53.747-20.794c-19.062 15.601-31.253 39.298-31.253 65.794v10c0 8.284 6.716 15 15 15h140c8.284 0 15-6.716 15-15v-10c0-26.496-12.191-50.194-31.253-65.794z" data-original="#000000" class="active-path" data-old_color="#000000" fill="#808080"/><path d="m480.747 361.206c-14.213 12.914-33.077 20.794-53.747 20.794s-39.534-7.88-53.747-20.794c-15.429 12.628-26.354 30.561-29.959 50.989 10.066 11.71 17.613 25.236 22.266 39.805h131.44c8.284 0 15-6.716 15-15v-10c0-26.496-12.191-50.194-31.253-65.794z" data-original="#000000" class="active-path" data-old_color="#000000" fill="#808080"/><path d="m138.747 361.206c-14.213 12.914-33.077 20.794-53.747 20.794s-39.534-7.88-53.747-20.794c-19.062 15.601-31.253 39.298-31.253 65.794v10c0 8.284 6.716 15 15 15h131.44c4.652-14.569 12.2-28.094 22.266-39.805-3.605-20.428-14.53-38.361-29.959-50.989z" data-original="#000000" class="active-path" data-old_color="#000000" fill="#808080"/><path d="m85 352c-27.57 0-50-22.43-50-50s22.43-50 50-50 50 22.43 50 50-22.431 50-50 50z" data-original="#000000" class="active-path" data-old_color="#000000" fill="#808080"/><path d="m376 30h-45v-15c0-8.284-6.716-15-15-15h-120c-8.284 0-15 6.716-15 15v15h-45c-8.284 0-15 6.716-15 15v30c0 30.327 24.673 55 55 55h6.509c5.98 29.344 29.147 52.51 58.491 58.491v63.509h-25c-8.284 0-15 6.716-15 15s6.716 15 15 15h80c8.284 0 15-6.716 15-15s-6.716-15-15-15h-25v-63.509c29.344-5.98 52.51-29.147 58.491-58.491h6.509c30.327 0 55-24.673 55-55v-30c0-8.284-6.716-15-15-15zm-195 70h-5c-13.785 0-25-11.215-25-25v-15h30zm90 5c0 8.284-6.716 15-15 15s-15-6.716-15-15v-30c0-8.284 6.716-15 15-15s15 6.716 15 15zm90-30c0 13.785-11.215 25-25 25h-5v-40h30z" data-original="#000000" class="active-path" data-old_color="#000000" fill="#808080"/></g> </svg>
