<?xml version="1.0"?>
<svg xmlns="http://www.w3.org/2000/svg" xmlns:xlink="http://www.w3.org/1999/xlink" version="1.1" id="Capa_1" x="0px" y="0px" viewBox="0 0 58 58" style="enable-background:new 0 0 58 58;" xml:space="preserve" width="512px" height="512px"><g><g>
	<path d="M29,0c-3.859,0-7.54,0.764-10.911,2.138l-0.013-0.012L17.468,2.39c-0.083,0.036-0.16,0.082-0.242,0.119   c-0.69,0.308-1.369,0.635-2.029,0.993c-0.15,0.081-0.295,0.171-0.443,0.255c-0.533,0.302-1.056,0.62-1.568,0.955   C12.92,4.885,12.659,5.063,12.4,5.244c-0.422,0.296-0.835,0.603-1.24,0.92c-0.308,0.241-0.611,0.487-0.909,0.74   c-0.367,0.31-0.725,0.63-1.075,0.958C8.918,8.104,8.662,8.347,8.413,8.599C8.027,8.988,7.654,9.392,7.29,9.803   c-0.2,0.227-0.401,0.453-0.594,0.686c-0.396,0.476-0.774,0.969-1.14,1.471c-0.148,0.204-0.295,0.407-0.437,0.615   c-0.386,0.56-0.752,1.134-1.099,1.722c-0.092,0.157-0.183,0.314-0.272,0.473c-0.367,0.649-0.711,1.312-1.028,1.991   c-0.023,0.048-0.051,0.093-0.073,0.142L2.359,17.53l0.009,0.009C0.846,21.056,0,24.93,0,29c0,15.991,13.01,29,29,29   s29-13.009,29-29S44.99,0,29,0z M4.751,17.141c0.031-0.064,0.065-0.126,0.097-0.189c0.273-0.547,0.566-1.081,0.873-1.605   c0.073-0.124,0.142-0.251,0.217-0.374c0.301-0.494,0.624-0.972,0.954-1.445c0.139-0.198,0.277-0.398,0.422-0.593   c0.314-0.424,0.642-0.835,0.979-1.238c0.193-0.23,0.39-0.457,0.59-0.681c0.294-0.329,0.596-0.65,0.905-0.964   c0.259-0.263,0.525-0.518,0.795-0.77c0.245-0.229,0.496-0.453,0.75-0.673c0.325-0.282,0.656-0.556,0.995-0.822   c0.299-0.235,0.602-0.465,0.911-0.688c0.216-0.156,0.431-0.314,0.652-0.464c0.464-0.314,0.941-0.611,1.426-0.896   c0.188-0.111,0.378-0.221,0.569-0.328c0.532-0.296,1.073-0.578,1.627-0.838c0.059-0.028,0.12-0.053,0.179-0.081   c2.823,2.398,6.728,3.5,11.343,3.202c6.98,0.308,12.697,4.269,15.3,10.603c2.251,5.479,1.291,12.099-2.505,17.277   c-1.297,1.771-2.78,3.416-4.408,4.891c-2.682,2.429-5.705,3.995-8.743,4.53c-5.118,0.903-10.34-0.416-14.318-3.617   c-3.834-3.084-6.068-7.615-6.296-12.763C8.37,23.922,7.227,19.974,4.751,17.141z M29,56C14.112,56,2,43.888,2,29   c0-3.446,0.656-6.74,1.838-9.773c1.707,2.377,2.48,5.554,2.225,9.309L6.06,28.591l0.002,0.055C6.3,34.4,8.801,39.476,13.104,42.938   c3.516,2.828,7.897,4.336,12.4,4.336c1.169,0,2.347-0.102,3.52-0.308c3.409-0.601,6.777-2.335,9.738-5.018   c1.728-1.566,3.302-3.313,4.679-5.191c4.205-5.737,5.255-13.101,2.741-19.22c-2.913-7.093-9.313-11.521-17.12-11.844l-0.054-0.002   l-0.055,0.004c-3.646,0.245-6.756-0.482-9.112-2.093C22.703,2.567,25.786,2,29,2c14.888,0,27,12.112,27,27S43.888,56,29,56z" data-original="#000000" class="active-path" data-old_color="#000000" fill="#2F3333"/>
</g></g> </svg>
