<?xml version="1.0"?>
<svg xmlns="http://www.w3.org/2000/svg" height="512px" version="1.1" viewBox="0 0 512.00102 512" width="512px"><g><g id="surface1">
<path d="M 456.816406 160.660156 L 391.484375 160.660156 L 391.484375 110.332031 L 496.980469 110.332031 C 496.988281 110.332031 496.996094 110.332031 497 110.332031 C 505.285156 110.332031 512 103.613281 512 95.332031 C 512 90.953125 510.128906 87.015625 507.136719 84.273438 L 478.027344 55.164062 L 507.589844 25.605469 C 511.878906 21.316406 513.160156 14.863281 510.839844 9.261719 C 508.519531 3.65625 503.050781 0 496.984375 0 L 376.484375 0 C 368.203125 0 361.488281 6.714844 361.488281 15 L 361.488281 160.660156 L 344.351562 160.660156 C 313.933594 160.660156 289.1875 185.410156 289.1875 215.828125 L 289.1875 247.089844 C 281.636719 243.203125 273.085938 240.992188 264.023438 240.992188 L 247.957031 240.992188 C 217.539062 240.992188 192.792969 265.738281 192.792969 296.15625 L 192.792969 327.421875 C 185.238281 323.535156 176.6875 321.324219 167.625 321.324219 L 151.5625 321.324219 C 121.140625 321.324219 96.394531 346.070312 96.394531 376.488281 L 96.394531 407.753906 C 88.84375 403.863281 80.292969 401.652344 71.230469 401.652344 L 55.164062 401.652344 C 24.746094 401.652344 0 426.398438 0 456.816406 L 0 496.980469 C 0 505.265625 6.714844 511.980469 15 511.980469 L 496.980469 511.980469 C 505.265625 511.980469 511.980469 505.265625 511.980469 496.980469 L 511.980469 215.828125 C 511.980469 185.410156 487.234375 160.660156 456.816406 160.660156 Z M 391.484375 30 L 460.769531 30 L 446.210938 44.558594 C 443.394531 47.371094 441.816406 51.1875 441.816406 55.164062 C 441.816406 59.144531 443.394531 62.957031 446.210938 65.773438 L 460.769531 80.332031 L 391.484375 80.332031 Z M 30 456.816406 C 30 442.941406 41.289062 431.652344 55.164062 431.652344 L 71.230469 431.652344 C 85.105469 431.652344 96.394531 442.941406 96.394531 456.816406 L 96.394531 481.984375 L 30 481.984375 Z M 126.394531 456.816406 L 126.394531 376.488281 C 126.394531 362.609375 137.683594 351.320312 151.558594 351.320312 L 167.625 351.320312 C 181.5 351.320312 192.789062 362.609375 192.789062 376.488281 L 192.789062 481.984375 L 126.394531 481.984375 Z M 222.789062 376.488281 L 222.789062 296.15625 C 222.789062 282.28125 234.082031 270.992188 247.957031 270.992188 L 264.023438 270.992188 C 277.898438 270.992188 289.1875 282.28125 289.1875 296.15625 L 289.1875 481.984375 L 222.789062 481.984375 Z M 481.980469 481.984375 L 319.1875 481.984375 L 319.1875 215.828125 C 319.1875 201.949219 330.476562 190.660156 344.351562 190.660156 L 456.816406 190.660156 C 470.691406 190.660156 481.980469 201.949219 481.980469 215.828125 Z M 481.980469 481.984375 " data-original="#000000" class="active-path" data-old_color="#000000" fill="#2F3333"/>
</g></g> </svg>
