<svg id="Capa_1" enable-background="new 0 0 512 512" height="512" viewBox="0 0 512 512" width="512" xmlns="http://www.w3.org/2000/svg"><path d="m437.019 74.981c-48.352-48.352-112.639-74.981-181.019-74.981s-132.667 26.629-181.019 74.981-74.981 112.639-74.981 181.019 26.629 132.667 74.981 181.019 112.639 74.981 181.019 74.981 132.667-26.629 181.019-74.981 74.981-112.639 74.981-181.019-26.629-132.667-74.981-181.019zm45.064 181.019c0 55.203-19.662 107.378-55.655 148.552-36.125-41.21-55.865-93.479-55.865-148.789 0-55.203 19.662-107.378 55.655-148.551 36.126 41.21 55.865 93.479 55.865 148.788zm-452.166 0c0-55.211 19.668-107.392 55.67-148.568 36.214 41.187 55.97 93.476 55.907 148.825-.062 55.177-19.812 107.269-55.903 148.315-36.005-41.177-55.674-93.36-55.674-148.572zm76.825 169.803c41.734-46.723 64.597-106.331 64.668-169.512.072-63.382-22.798-123.221-64.667-170.095 41.281-36.388 93.737-56.279 149.257-56.279 55.422 0 107.791 19.821 149.039 56.087-41.627 46.859-64.393 106.556-64.393 169.759 0 63.328 22.854 123.134 64.627 170.026-41.285 36.398-93.747 56.294-149.274 56.294-55.519 0-107.975-19.891-149.257-56.28z"/></svg>