<svg id="Layer_1" enable-background="new 0 0 512 512" height="512" viewBox="0 0 512 512" width="512" xmlns="http://www.w3.org/2000/svg"><g><g><path d="m355.4 104.02v178.33c0 24.76-44.5 44.83-99.4 44.83-5.1 0-10.11-.17-15-.51-47.77-3.26-84.4-21.86-84.4-44.32v-176.52l66.14-.6 102.66-.94z" fill="#eef6ff"/><g><g><path d="m355.4 105.83c0 18.13-23.86 33.75-58.19 40.81-12.56 2.58-26.51 4.02-41.21 4.02-54.89 0-99.4-20.07-99.4-44.83 0-11.93 10.34-22.78 27.2-30.81 18.12-8.63 43.76-14.02 72.2-14.02 54.9 0 99.4 20.07 99.4 44.83z" fill="#dae6ef"/></g><path d="m355.4 104.02v178.33c0 24.76-44.5 44.83-99.4 44.83-5.1 0-10.11-.17-15-.51 47.78-3.26 84.4-21.86 84.4-44.32v-126.05c-8.23 1.57-17.09 2.43-26.31 2.43-43.59 0-78.93-19.1-78.93-42.65 0-3.75.89-7.39 2.58-10.85l102.66-.94z" fill="#dae6ef"/></g><g><g><path d="m355.4 105.83c0 18.13-23.86 33.75-58.19 40.81 16.86-8.03 27.19-18.87 27.19-30.81 0-24.76-44.5-44.83-99.4-44.83-14.7 0-28.65 1.44-41.2 4.02 18.12-8.63 43.76-14.02 72.2-14.02 54.9 0 99.4 20.07 99.4 44.83z" fill="#c5d3dd"/></g></g><path d="m286.049 105.831c0 7.74-13.45 14-30.05 14-4.86 0-9.46-.54-13.52-1.5-9.8-2.3-16.52-7.03-16.52-12.5 0-5.46 6.72-10.2 16.52-12.5 4.06-.96 8.66-1.5 13.52-1.5 16.6 0 30.05 6.27 30.05 14z" fill="#555760"/><path d="m286.049 105.831c0 7.74-13.45 14-30.05 14-4.86 0-9.46-.54-13.52-1.5 9.8-2.3 16.52-7.03 16.52-12.5 0-5.46-6.72-10.2-16.52-12.5 4.06-.96 8.66-1.5 13.52-1.5 16.6 0 30.05 6.27 30.05 14z" fill="#36383f"/></g><path d="m57.2 404.61c0 16.543-20.14 38.621-49.7 46.39v-176.516c29.711-7.751 49.7-29.797 49.7-46.39z" fill="#dae6ef"/><path d="m454.8 402.793c0 16.543 20.14 38.621 49.7 46.39v-176.516c-29.711-7.751-49.7-29.797-49.7-46.39z" fill="#c5d3dd"/><g><path d="m454.8 226.022v178.33c0 24.76-44.5 44.83-99.4 44.83-5.1 0-10.11-.17-15-.51-47.77-3.26-84.4-21.86-84.4-44.32v-176.52l66.14-.6 102.66-.94z" fill="#eef6ff"/><g><g><path d="m454.8 227.832c0 18.13-23.86 33.75-58.19 40.81-12.56 2.58-26.51 4.02-41.21 4.02-54.89 0-99.4-20.07-99.4-44.83 0-11.93 10.34-22.78 27.2-30.81 18.12-8.63 43.76-14.02 72.2-14.02 54.9 0 99.4 20.07 99.4 44.83z" fill="#dae6ef"/></g><path d="m454.8 226.022v178.33c0 24.76-44.5 44.83-99.4 44.83-5.1 0-10.11-.17-15-.51 47.78-3.26 84.4-21.86 84.4-44.32v-126.05c-8.23 1.57-17.09 2.43-26.31 2.43-43.59 0-78.93-19.1-78.93-42.65 0-3.75.89-7.39 2.58-10.85l102.66-.94z" fill="#dae6ef"/></g><g><g><path d="m454.8 227.832c0 18.13-23.86 33.75-58.19 40.81 16.86-8.03 27.19-18.87 27.19-30.81 0-24.76-44.5-44.83-99.4-44.83-14.7 0-28.65 1.44-41.2 4.02 18.12-8.63 43.76-14.02 72.2-14.02 54.9 0 99.4 20.07 99.4 44.83z" fill="#c5d3dd"/></g></g><path d="m385.449 228.094c0 7.74-13.45 14-30.05 14-4.86 0-9.46-.54-13.52-1.5-9.8-2.3-16.52-7.03-16.52-12.5 0-5.46 6.72-10.2 16.52-12.5 4.06-.96 8.66-1.5 13.52-1.5 16.6 0 30.05 6.269 30.05 14z" fill="#555760"/><path d="m385.449 228.094c0 7.74-13.45 14-30.05 14-4.86 0-9.46-.54-13.52-1.5 9.8-2.3 16.52-7.03 16.52-12.5 0-5.46-6.72-10.2-16.52-12.5 4.06-.96 8.66-1.5 13.52-1.5 16.6 0 30.05 6.269 30.05 14z" fill="#36383f"/></g><g><path d="m255.995 227.84v178.33c0 24.76-44.5 44.83-99.4 44.83-5.1 0-10.11-.17-15-.51-47.77-3.26-84.4-21.86-84.4-44.32v-176.52l66.14-.6 102.66-.94z" fill="#eef6ff"/><g><g><path d="m255.995 229.65c0 18.13-23.86 33.75-58.19 40.81-12.56 2.58-26.51 4.02-41.21 4.02-54.89 0-99.4-20.07-99.4-44.83 0-11.93 10.34-22.78 27.2-30.81 18.12-8.63 43.76-14.02 72.2-14.02 54.9 0 99.4 20.07 99.4 44.83z" fill="#dae6ef"/></g><path d="m255.995 227.84v178.33c0 24.76-44.5 44.83-99.4 44.83-5.1 0-10.11-.17-15-.51 47.78-3.26 84.4-21.86 84.4-44.32v-126.05c-8.23 1.57-17.09 2.43-26.31 2.43-43.59 0-78.93-19.1-78.93-42.65 0-3.75.89-7.39 2.58-10.85l102.66-.94z" fill="#dae6ef"/></g><g><g><path d="m255.995 229.65c0 18.13-23.86 33.75-58.19 40.81 16.86-8.03 27.19-18.87 27.19-30.81 0-24.76-44.5-44.83-99.4-44.83-14.7 0-28.65 1.44-41.2 4.02 18.12-8.63 43.76-14.02 72.2-14.02 54.9 0 99.4 20.07 99.4 44.83z" fill="#c5d3dd"/></g></g><path d="m186.645 228.09c0 7.74-13.45 14-30.05 14-4.86 0-9.46-.54-13.52-1.5-9.8-2.3-16.52-7.03-16.52-12.5 0-5.46 6.72-10.2 16.52-12.5 4.06-.96 8.66-1.5 13.52-1.5 16.6 0 30.05 6.27 30.05 14z" fill="#555760"/><path d="m186.645 228.09c0 7.74-13.45 14-30.05 14-4.86 0-9.46-.54-13.52-1.5 9.8-2.3 16.52-7.03 16.52-12.5 0-5.46-6.72-10.2-16.52-12.5 4.06-.96 8.66-1.5 13.52-1.5 16.6 0 30.05 6.27 30.05 14z" fill="#36383f"/></g></g><g><path d="m506.394 265.409c-20.855-5.441-44.093-22.851-44.093-39.133h-.043c-.792-14.48-12.612-27.563-33.487-36.977-17.926-8.085-41.084-12.868-65.871-13.672v-69.796c0-15.099-11.908-28.785-33.53-38.537-19.724-8.895-45.78-13.794-73.371-13.794s-53.647 4.899-73.369 13.794c-21.622 9.751-33.53 23.438-33.53 38.537v71.613c-24.787.804-47.944 5.588-65.869 13.672-20.875 9.415-32.696 22.497-33.487 36.978h-.044c0 16.282-23.238 33.692-44.094 39.133-3.301.861-5.606 3.844-5.606 7.257v176.516c0 2.325 1.078 4.519 2.92 5.939 1.326 1.023 2.94 1.561 4.58 1.561.637 0 1.277-.081 1.906-.247 15.013-3.945 28.962-11.688 39.279-21.803 3.355-3.289 6.238-6.755 8.596-10.292 5.674 7.044 14.433 13.354 25.948 18.547 19.722 8.895 45.778 13.794 73.369 13.794s53.647-4.899 73.37-13.794c12.077-5.447 21.123-12.121 26.757-19.583 5.683 6.73 14.216 12.766 25.304 17.766 19.723 8.895 45.779 13.794 73.37 13.794s53.647-4.899 73.37-13.794c11.515-5.194 20.275-11.503 25.948-18.547 2.358 3.536 5.241 7.003 8.596 10.292 10.316 10.114 24.266 17.857 39.278 21.803.629.166 1.27.247 1.906.247 1.64 0 3.254-.538 4.58-1.561 1.842-1.42 2.92-3.614 2.92-5.939v-176.516c.003-3.414-2.302-6.396-5.603-7.258zm-59.093-37.573c0 17.657-37.742 37.331-91.9 37.331s-91.9-19.674-91.9-37.331 37.742-37.331 91.9-37.331 91.9 19.674 91.9 37.331zm-192.027-18.954c-5.683-6.73-14.216-12.765-25.304-17.766-17.926-8.084-41.083-12.868-65.87-13.672v-44.232c5.008 4.104 11.212 7.855 18.53 11.156 19.722 8.895 45.778 13.794 73.369 13.794s53.647-4.899 73.37-13.794c7.318-3.3 13.523-7.052 18.53-11.156v42.415c-24.786.805-47.944 5.588-65.869 13.672-12.077 5.447-21.123 12.121-26.756 19.583zm.725-140.382c54.158 0 91.9 19.674 91.9 37.331s-37.742 37.331-91.9 37.331c-54.157 0-91.899-19.674-91.899-37.331s37.742-37.331 91.899-37.331zm-99.399 123.822c54.158 0 91.9 19.674 91.9 37.331s-37.742 37.331-91.9 37.331c-54.157 0-91.899-19.674-91.899-37.331-.001-17.657 37.741-37.331 91.899-37.331zm340.4 246.479c-20.853-8.45-34.699-24.618-34.699-36.009v-87.228c0-4.142-3.357-7.5-7.5-7.5s-7.5 3.358-7.5 7.5v88.787c0 17.657-37.742 37.331-91.9 37.331s-91.9-19.674-91.9-37.331v-18.963c0-4.142-3.357-7.5-7.5-7.5s-7.5 3.358-7.5 7.5v18.963c0 .4.009.8.026 1.198-.017.204-.026.411-.026.619 0 17.657-37.742 37.331-91.9 37.331-54.157 0-91.899-19.674-91.899-37.331v-88.706c0-4.142-3.357-7.5-7.5-7.5s-7.5 3.358-7.5 7.5v87.146c0 11.391-13.847 27.558-34.7 36.008v-160.529c12.913-4.255 24.736-11.283 33.747-20.132.322-.316.64-.634.953-.954v23.545c0 4.142 3.357 7.5 7.5 7.5s7.5-3.358 7.5-7.5v-25.513c5.008 4.104 11.212 7.855 18.53 11.156 19.722 8.895 45.778 13.794 73.369 13.794s53.647-4.899 73.37-13.794c7.318-3.301 13.523-7.052 18.53-11.156v94.045c0 4.142 3.357 7.5 7.5 7.5s7.5-3.358 7.5-7.5v-95.862c5.008 4.104 11.212 7.855 18.53 11.156 19.723 8.895 45.779 13.794 73.37 13.794s53.647-4.899 73.37-13.794c7.318-3.3 13.523-7.052 18.53-11.156v25.4c0 4.142 3.357 7.5 7.5 7.5s7.5-3.358 7.5-7.5v-23.432c.313.32.631.638.953.954 9.011 8.848 20.833 15.876 33.746 20.131z"/><path d="m156.6 249.594c21.757 0 37.549-9.042 37.549-21.5s-15.792-21.5-37.549-21.5-37.549 9.042-37.549 21.5 15.792 21.5 37.549 21.5zm0-28c13.458 0 21.336 4.521 22.479 6.5-1.143 1.979-9.021 6.5-22.479 6.5s-21.336-4.521-22.479-6.5c1.143-1.979 9.021-6.5 22.479-6.5z"/><path d="m317.852 228.094c0 12.458 15.792 21.5 37.549 21.5s37.549-9.042 37.549-21.5-15.792-21.5-37.549-21.5-37.549 9.042-37.549 21.5zm60.027 0c-1.143 1.979-9.021 6.5-22.479 6.5s-21.336-4.521-22.479-6.5c1.143-1.979 9.021-6.5 22.479-6.5s21.336 4.521 22.479 6.5z"/><path d="m256 127.331c21.757 0 37.549-9.042 37.549-21.5s-15.792-21.5-37.549-21.5-37.549 9.042-37.549 21.5 15.792 21.5 37.549 21.5zm0-28c13.458 0 21.336 4.521 22.479 6.5-1.143 1.979-9.021 6.5-22.479 6.5s-21.336-4.521-22.479-6.5c1.143-1.979 9.021-6.5 22.479-6.5z"/></g></svg>