<svg id="Layer_1" data-name="Layer 1" xmlns="http://www.w3.org/2000/svg" xmlns:xlink="http://www.w3.org/1999/xlink" viewBox="0 0 418.96 109.91"><defs><linearGradient id="linear-gradient" x1="50.74" y1="-87.39" x2="68.82" y2="-61.75" gradientTransform="matrix(1, 0, 0, -1, -2.81, -15.68)" gradientUnits="userSpaceOnUse"><stop offset="0" stop-opacity="0"/><stop offset="0.99"/></linearGradient><linearGradient id="linear-gradient-2" x1="36.45" y1="-60.34" x2="48.58" y2="-60.67" xlink:href="#linear-gradient"/><linearGradient id="linear-gradient-3" x1="-1509.06" y1="-59.85" x2="-1496.93" y2="-60.18" gradientTransform="translate(-1432.72 -15.68) rotate(180)" xlink:href="#linear-gradient"/><linearGradient id="linear-gradient-4" x1="343.35" y1="-86.82" x2="361.43" y2="-61.17" gradientTransform="matrix(1, 0, 0, -1, -2.64, -15.35)" xlink:href="#linear-gradient"/><linearGradient id="linear-gradient-5" x1="329.03" y1="-60.02" x2="341.16" y2="-60.34" gradientTransform="matrix(1, 0, 0, -1, -2.64, -15.35)" xlink:href="#linear-gradient"/><linearGradient id="linear-gradient-6" x1="-1801.68" y1="-60.47" x2="-1789.55" y2="-60.8" gradientTransform="translate(-1432.55 -16.29) rotate(180)" xlink:href="#linear-gradient"/><linearGradient id="linear-gradient-7" x1="194.74" y1="-87.39" x2="212.82" y2="-61.75" xlink:href="#linear-gradient"/><linearGradient id="linear-gradient-8" x1="180.46" y1="-60.34" x2="192.58" y2="-60.67" xlink:href="#linear-gradient"/><linearGradient id="linear-gradient-9" x1="-1653.07" y1="-59.85" x2="-1640.94" y2="-60.18" gradientTransform="translate(-1432.72 -15.68) rotate(180)" xlink:href="#linear-gradient"/></defs><title>user status</title><path d="M109.86,54.93a54.7,54.7,0,1,1,0-.46Z" transform="translate(0 0.03)" fill="#a4d96c" opacity="0.18" style="isolation:isolate"/><path d="M39,39.8a2.94,2.94,0,0,0-1.69-.57,2.24,2.24,0,0,0-1,.36,4,4,0,0,0-1.72,3.48,5.81,5.81,0,0,0,1.6,3.65,4,4,0,0,0,2.87,1.5,1,1,0,0,0,.56-.14A1.37,1.37,0,0,0,40,47c.08-1.47.17-3,.25-4.42S40.36,40.66,39,39.8Z" transform="translate(0 0.03)" fill="#f7af87"/><path d="M70.89,39.77a2.83,2.83,0,0,1,1.68-.56,2,2,0,0,1,1,.36A4,4,0,0,1,75.29,43a5.8,5.8,0,0,1-1.55,3.65,4,4,0,0,1-2.87,1.5,1.08,1.08,0,0,1-.56-.14A1.33,1.33,0,0,1,69.9,47c-.09-1.47-.17-3-.26-4.42S69.53,40.63,70.89,39.77Z" transform="translate(0 0.03)" fill="#f7af87"/><path d="M93.58,92.37V94a54.93,54.93,0,0,1-77.3,0V87.79S21.1,69.67,37.85,67.61s34.86.68,34.86.68S90.38,70.59,93.58,92.37Z" transform="translate(0 0.03)" fill="#a4d96c"/><path d="M44.61,66a5,5,0,0,0-.67,2.19,3.77,3.77,0,0,0,.33,1.32,12,12,0,0,0,8.19,6.9,10.88,10.88,0,0,0,3,.49c3,0,6.06-2.09,7.89-5.47a1.3,1.3,0,0,0,.2-.57,1.66,1.66,0,0,0-.21-.75c-1.14-2.45-.94-5.62-.63-8.5a1.59,1.59,0,0,0-.05-.72.76.76,0,0,0-.43-.36c-2-.83-4.1-.32-6.16-.4-2.87-.11-5.66-1.42-8.53-1.43-1.28,0-1.38.48-1.56,2.08A16.86,16.86,0,0,1,44.61,66Z" transform="translate(0 0.03)" fill="#f7af87"/><path d="M44.65,57.71s1.65,6.49,5.67,10.74,13.52,3.44,12.4-.35c-1-3.19.82-10.39.82-10.39Z" transform="translate(0 0.03)" fill="url(#linear-gradient)"/><path d="M71.1,45.48c-1.26,10.65-7.18,19.42-16,19.42S39,56.21,39,45.48,44.7,22.64,53.56,22.64,73.7,23.7,71.1,45.48Z" transform="translate(0 0.03)" fill="#f7af87"/><path d="M35.41,29.26c-.08-1.88,0-4,1.21-5.36a6.43,6.43,0,0,0,.88-1,4.05,4.05,0,0,0,.34-1.5c.48-4,3.39-7.39,6.73-9.68a25.86,25.86,0,0,1,12.32-4.4,14.49,14.49,0,0,1,4.26.18,15.6,15.6,0,0,1,4,1.61,17.21,17.21,0,0,1,5.34,4.17,8.55,8.55,0,0,1,2,6.32,7.48,7.48,0,0,1,4.16,4.51,15.59,15.59,0,0,1,.61,6.44c-.43,5.16-2.4,10.46-6.52,13.59a22.46,22.46,0,0,0-2.33-10.4c-.56-1.13-1.22-2.22-1.67-3.4a10.71,10.71,0,0,1-.67-3.88c-1.72.92-2.73,2.8-4.36,3.89a9.36,9.36,0,0,1-3.39,1.24,25.63,25.63,0,0,1-11.65-.41c-1.5-.41-3.41-.83-4.36.41a5.06,5.06,0,0,0-.57,2.78A13.42,13.42,0,0,1,41,37.43L38.65,44.5C37.86,43.81,35.59,33.51,35.41,29.26Z" transform="translate(0 0.03)" fill="#404040"/><path d="M37.64,44.43a6.9,6.9,0,0,0-.55-1.83.57.57,0,0,0-.27-.26.43.43,0,0,0-.47.17,1,1,0,0,0-.2.49,4.13,4.13,0,0,0,1.32,3.83,1.56,1.56,0,0,0,.62.36.69.69,0,0,0,.66-.18C39.61,46.05,37.87,45.29,37.64,44.43Z" transform="translate(0 0.03)" fill="url(#linear-gradient-2)"/><path d="M72.34,43.94a6.5,6.5,0,0,1,.54-1.84.65.65,0,0,1,.27-.25.49.49,0,0,1,.48.16,1,1,0,0,1,.2.5,4.13,4.13,0,0,1-1.33,3.83,1.46,1.46,0,0,1-.61.36.69.69,0,0,1-.66-.18C70.37,45.54,72.1,44.78,72.34,43.94Z" transform="translate(0 0.03)" fill="url(#linear-gradient-3)"/><circle cx="99.58" cy="79.91" r="23.28" fill="#a4d96c" opacity="0.18" style="isolation:isolate"/><circle cx="96.11" cy="77.14" r="23.28" fill="#fff"/><rect x="90.46" y="62.34" width="9.49" height="28.82" fill="#d1d1d1"/><rect x="80.95" y="72" width="28.82" height="9.49" fill="#d1d1d1"/><path d="M402.49,55a54.79,54.79,0,1,1,0-.43Z" transform="translate(0 0.03)" fill="#a4d96c" opacity="0.18" style="isolation:isolate"/><path d="M331.63,39.79a2.8,2.8,0,0,0-1.69-.57,2.12,2.12,0,0,0-1,.36,4,4,0,0,0-1.73,3.47,5.82,5.82,0,0,0,1.55,3.66,4,4,0,0,0,2.87,1.5,1.19,1.19,0,0,0,.56-.14,1.37,1.37,0,0,0,.42-1.1c.08-1.48.17-2.95.25-4.42S333,40.64,331.63,39.79Z" transform="translate(0 0.03)" fill="#f7af87"/><path d="M363.52,39.78a2.86,2.86,0,0,1,1.69-.56,2.24,2.24,0,0,1,1,.36,4,4,0,0,1,1.71,3.47,5.8,5.8,0,0,1-1.55,3.66,4,4,0,0,1-2.87,1.49,1,1,0,0,1-.56-.14,1.33,1.33,0,0,1-.41-1.1c-.09-1.47-.17-3-.25-4.42S362.19,40.64,363.52,39.78Z" transform="translate(0 0.03)" fill="#f7af87"/><path d="M386.19,92.43V94a54.93,54.93,0,0,1-77.3-.06V87.79s4.84-18.12,21.58-20.17,34.86.71,34.86.71S383,70.62,386.19,92.43Z" transform="translate(0 0.03)" fill="#a4d96c"/><path d="M337.19,66a5,5,0,0,0-.67,2.19,3.55,3.55,0,0,0,.32,1.32A12,12,0,0,0,345,76.4a10.88,10.88,0,0,0,3,.49c3.05,0,6.06-2.09,7.89-5.46a1.3,1.3,0,0,0,.2-.57,1.66,1.66,0,0,0-.21-.75c-1.14-2.45-.93-5.62-.63-8.5a1.46,1.46,0,0,0,0-.72.75.75,0,0,0-.43-.37c-2-.83-4.1-.31-6.16-.4-2.88-.11-5.66-1.43-8.53-1.44-1.28,0-1.38.48-1.56,2.09A16.86,16.86,0,0,1,337.19,66Z" transform="translate(0 0.03)" fill="#f7af87"/><path d="M337.27,57.7s1.65,6.49,5.66,10.75,13.52,3.45,12.4-.35c-.94-3.19.83-10.39.83-10.39Z" transform="translate(0 0.03)" fill="url(#linear-gradient-4)"/><path d="M363.73,45.49c-1.27,10.65-7.2,19.42-16.06,19.41s-16.05-8.71-16-19.43,5.72-22.84,14.58-22.83S366.34,23.71,363.73,45.49Z" transform="translate(0 0.03)" fill="#f7af87"/><path d="M328.05,29.24c-.07-1.88,0-4,1.22-5.36a6.43,6.43,0,0,0,.88-1,4.05,4.05,0,0,0,.34-1.5c.48-4,3.39-7.39,6.74-9.68a25.74,25.74,0,0,1,12.32-4.39,14.1,14.1,0,0,1,4.25.19,14.91,14.91,0,0,1,4,1.61,17.05,17.05,0,0,1,5.33,4.17,8.55,8.55,0,0,1,2,6.32,7.53,7.53,0,0,1,4.16,4.51,15.63,15.63,0,0,1,.6,6.45c-.43,5.16-2.41,10.45-6.53,13.59A22.46,22.46,0,0,0,361,33.74a35.59,35.59,0,0,1-1.66-3.4,10.3,10.3,0,0,1-.67-3.88c-1.73.92-2.74,2.8-4.36,3.88a9.41,9.41,0,0,1-3.4,1.24,25.63,25.63,0,0,1-11.65-.41c-1.5-.41-3.41-.84-4.36.4a5.06,5.06,0,0,0-.57,2.78,13.5,13.5,0,0,1-.75,3.07l-2.35,7.06C330.49,43.79,328.19,33.5,328.05,29.24Z" transform="translate(0 0.03)" fill="#404040"/><path d="M330.27,44.43a6.5,6.5,0,0,0-.54-1.84.65.65,0,0,0-.27-.25.44.44,0,0,0-.48.16,1,1,0,0,0-.2.5,4.13,4.13,0,0,0,1.32,3.83,1.56,1.56,0,0,0,.62.36.69.69,0,0,0,.66-.18C332.24,46,330.5,45.27,330.27,44.43Z" transform="translate(0 0.03)" fill="url(#linear-gradient-5)"/><path d="M365,44a6.9,6.9,0,0,1,.55-1.83.57.57,0,0,1,.27-.26.43.43,0,0,1,.47.17,1,1,0,0,1,.2.49,4.1,4.1,0,0,1-1.33,3.83,1.46,1.46,0,0,1-.61.36.69.69,0,0,1-.66-.18C363,45.56,364.74,44.8,365,44Z" transform="translate(0 0.03)" fill="url(#linear-gradient-6)"/><circle cx="395.68" cy="79.91" r="23.28" fill="#a4d96c" opacity="0.18" style="isolation:isolate"/><circle cx="392.21" cy="77.14" r="23.28" fill="#fff"/><polygon points="409.19 68.4 387.49 89.19 382.78 84.1 382.29 83.58 376.01 76.99 381.9 71.52 388.11 78.04 403.95 62.94 409.19 68.4" fill="#8ee88e"/><path d="M253.87,54.93A54.93,54.93,0,1,1,198.94,0h0a54.7,54.7,0,0,1,54.93,54.47Z" transform="translate(0 0.03)" fill="#a4d96c" opacity="0.18" style="isolation:isolate"/><path d="M183,39.8a2.94,2.94,0,0,0-1.69-.57,2.24,2.24,0,0,0-1,.36,4,4,0,0,0-1.72,3.48,5.8,5.8,0,0,0,1.55,3.65,4,4,0,0,0,2.87,1.5,1,1,0,0,0,.56-.14A1.37,1.37,0,0,0,184,47c.08-1.47.17-3,.25-4.42S184.37,40.66,183,39.8Z" transform="translate(0 0.03)" fill="#f7af87"/><path d="M214.9,39.77a2.83,2.83,0,0,1,1.68-.56,2,2,0,0,1,1,.36A4,4,0,0,1,219.3,43a5.8,5.8,0,0,1-1.55,3.65,4,4,0,0,1-2.87,1.5,1.08,1.08,0,0,1-.56-.14,1.33,1.33,0,0,1-.41-1.1c-.09-1.47-.17-3-.26-4.42S213.54,40.63,214.9,39.77Z" transform="translate(0 0.03)" fill="#f7af87"/><path d="M237.59,92.37V94a54.93,54.93,0,0,1-77.3,0V87.79s4.82-18.12,21.57-20.18,34.86.68,34.86.68S234.38,70.59,237.59,92.37Z" transform="translate(0 0.03)" fill="#a4d96c"/><path d="M188.62,66a5,5,0,0,0-.67,2.19,3.77,3.77,0,0,0,.33,1.32,12,12,0,0,0,8.19,6.9,10.88,10.88,0,0,0,3,.49c3,0,6.06-2.09,7.89-5.47a1.3,1.3,0,0,0,.2-.57,1.67,1.67,0,0,0-.22-.75c-1.13-2.45-.93-5.62-.62-8.5a1.59,1.59,0,0,0-.05-.72.76.76,0,0,0-.43-.36c-2-.83-4.1-.32-6.16-.4-2.88-.11-5.66-1.42-8.53-1.43-1.28,0-1.38.48-1.56,2.08A16.86,16.86,0,0,1,188.62,66Z" transform="translate(0 0.03)" fill="#f7af87"/><path d="M188.66,57.71s1.65,6.49,5.67,10.74,13.52,3.44,12.39-.35c-.94-3.19.83-10.39.83-10.39Z" transform="translate(0 0.03)" fill="url(#linear-gradient-7)"/><path d="M215.11,45.48c-1.26,10.65-7.18,19.42-16,19.42s-16.06-8.69-16.06-19.42,5.71-22.84,14.57-22.84S217.71,23.7,215.11,45.48Z" transform="translate(0 0.03)" fill="#f7af87"/><path d="M179.42,29.26c-.08-1.88,0-4,1.21-5.36a6.43,6.43,0,0,0,.88-1,4.05,4.05,0,0,0,.34-1.5c.48-4,3.39-7.39,6.73-9.68a25.86,25.86,0,0,1,12.32-4.4,14.49,14.49,0,0,1,4.26.18,15.6,15.6,0,0,1,4,1.61,17.21,17.21,0,0,1,5.34,4.17,8.55,8.55,0,0,1,2,6.32,7.49,7.49,0,0,1,4.17,4.51,15.59,15.59,0,0,1,.61,6.44c-.43,5.16-2.4,10.46-6.52,13.59a22.46,22.46,0,0,0-2.33-10.4c-.56-1.13-1.22-2.22-1.67-3.4a10.71,10.71,0,0,1-.67-3.88c-1.72.92-2.73,2.8-4.36,3.89a9.36,9.36,0,0,1-3.39,1.24,25.63,25.63,0,0,1-11.65-.41c-1.5-.41-3.41-.83-4.36.41a5.06,5.06,0,0,0-.57,2.78,13,13,0,0,1-.75,3.07l-2.34,7.07C181.87,43.81,179.6,33.51,179.42,29.26Z" transform="translate(0 0.03)" fill="#404040"/><path d="M181.65,44.43a6.9,6.9,0,0,0-.55-1.83.57.57,0,0,0-.27-.26.43.43,0,0,0-.47.17,1,1,0,0,0-.2.49,4.13,4.13,0,0,0,1.32,3.83,1.56,1.56,0,0,0,.62.36.69.69,0,0,0,.66-.18C183.62,46.05,181.88,45.29,181.65,44.43Z" transform="translate(0 0.03)" fill="url(#linear-gradient-8)"/><path d="M216.35,43.94a6.5,6.5,0,0,1,.54-1.84.65.65,0,0,1,.27-.25.49.49,0,0,1,.48.16,1.28,1.28,0,0,1,.2.5,4.13,4.13,0,0,1-1.33,3.83,1.46,1.46,0,0,1-.61.36.69.69,0,0,1-.66-.18C214.38,45.54,216.11,44.78,216.35,43.94Z" transform="translate(0 0.03)" fill="url(#linear-gradient-9)"/><circle cx="251.13" cy="79.91" r="23.28" fill="#a4d96c" opacity="0.18" style="isolation:isolate"/><circle cx="247.66" cy="77.14" r="23.28" fill="#fff"/><rect x="232.39" y="71.86" width="28.82" height="9.49" transform="translate(18.12 196.98) rotate(-45)" fill="#f93d96"/><rect x="242.16" y="62.3" width="9.49" height="28.82" transform="translate(18.07 197.09) rotate(-45)" fill="#f93d96"/></svg>