<?xml version="1.0" encoding="iso-8859-1"?>
<!-- Generator: Adobe Illustrator 19.0.0, SVG Export Plug-In . SVG Version: 6.00 Build 0)  -->
<svg version="1.1" id="Layer_1" xmlns="http://www.w3.org/2000/svg" xmlns:xlink="http://www.w3.org/1999/xlink" x="0px" y="0px"
	 viewBox="0 0 511.997 511.997" style="enable-background:new 0 0 511.997 511.997;" xml:space="preserve">
<g>
	<path style="fill:#000001;" d="M181.797,436.127h-0.238c-5.523,0-10,4.477-10,10c0,5.521,4.477,10,10,10h0.238
		c5.521,0,10-4.479,10-10C191.797,440.603,187.319,436.127,181.797,436.127z"/>
	<path style="fill:#000001;" d="M152.829,436.123h-51.035c-5.521,0-10,4.477-10,10c0,5.522,4.479,10,10,10h51.035
		c5.523,0,10-4.478,10-10C162.829,440.599,158.352,436.123,152.829,436.123z"/>
	<path style="fill:#000001;" d="M383.997,75.871h0.494c5.521,0,10-4.477,10-10c0-5.521-4.479-10-10-10h-0.494
		c-5.523,0-10,4.479-10,10C373.997,71.394,378.473,75.871,383.997,75.871z"/>
	<path style="fill:#000001;" d="M412.579,77.683c20.086,2.604,39.34,8.041,57.223,16.164c1.342,0.609,2.746,0.898,4.131,0.898
		c3.801,0,7.436-2.18,9.109-5.867c2.285-5.027,0.061-10.955-4.969-13.24c-19.695-8.945-40.865-14.932-62.926-17.789
		c-5.467-0.715-10.492,3.156-11.201,8.633C403.235,71.959,407.1,76.974,412.579,77.683z"/>
	<path style="fill:#000001;" d="M484.286,251.213c-15.811-13.664-38.322-23.785-73.033-32.828
		c-51.315-13.145-55.893-18.109-55.893-28.947v-0.84c0-9.486,10.91-15.615,27.797-15.615c21.211,0,44.348,8.895,70.729,27.191
		c2.184,1.514,4.881,2.096,7.492,1.621c2.613-0.477,4.93-1.975,6.439-4.162l33.594-48.713c2.975-4.314,2.115-10.193-1.973-13.475
		c-32.707-26.26-71.549-39.574-115.441-39.574c-27.566,0-51.68,6.973-70.469,19.279l0.543-1.354
		c1.238-3.082,0.863-6.576-0.996-9.328c-1.859-2.75-4.963-4.398-8.283-4.398h-69.707c-4.18,0-7.92,2.602-9.375,6.52l-67.475,181.773
		L90.76,106.59c-1.455-3.918-5.193-6.52-9.375-6.52H9.999c-3.32,0-6.424,1.648-8.283,4.398c-1.859,2.752-2.234,6.246-0.996,9.328
		l118.84,296.053c1.521,3.791,5.195,6.275,9.279,6.275h57.113c4.084,0,7.758-2.484,9.279-6.275l22.672-56.478
		c14.885,16.115,35.963,26.41,59.416,27.094c33.367,24.369,74.689,37.76,116.756,37.76c34.123,0,63.186-8.961,84.047-25.914
		c22.162-18.01,33.875-44.02,33.875-75.213v-0.842C511.997,288.605,502.932,267.328,484.286,251.213z M179.19,396.125H135.6
		L24.79,120.07h49.641l74.43,200.508c1.455,3.92,5.195,6.52,9.375,6.52c4.182,0,7.92-2.6,9.375-6.52l74.43-200.508h47.961
		l-38.9,96.91c-13.947,5.068-26.18,13.727-35.6,24.844c-0.293,0.287-0.576,0.59-0.838,0.92c-0.18,0.225-0.342,0.459-0.498,0.695
		c-11.652,14.461-18.65,32.822-18.65,52.797c0,13.418,3.168,26.103,8.768,37.377L179.19,396.125z M335.631,264.398
		c5.379,9.395,8.473,20.26,8.473,31.838s-3.094,22.441-8.471,31.836c-7.287-8.898-11.336-20.051-11.336-31.836
		C324.297,284.449,328.346,273.295,335.631,264.398z M363.975,291.672c3.734,1.029,7.725,2.086,12.078,3.195
		c51.695,13.26,51.695,20.27,51.695,27.691v0.838c0,16.438-24.811,17.715-32.414,17.715c-13.777,0-26.914-2.543-39.883-7.727
		c5.531-11.215,8.652-23.82,8.652-37.148C364.104,294.705,364.057,293.183,363.975,291.672z M322.899,343.908
		c-11.41,10.322-26.529,16.621-43.092,16.621s-31.68-6.299-43.09-16.621c11.924-12.898,18.602-29.766,18.602-47.672
		c0-17.908-6.678-34.777-18.602-47.674c11.41-10.324,26.527-16.621,43.09-16.621s31.682,6.297,43.092,16.621
		c-11.924,12.896-18.602,29.764-18.602,47.674C304.297,314.144,310.975,331.012,322.899,343.908z M215.514,296.236
		c0-11.578,3.092-22.441,8.471-31.836c7.285,8.896,11.334,20.049,11.334,31.836c0,11.785-4.049,22.938-11.334,31.836
		C218.606,318.677,215.514,307.814,215.514,296.236z M491.997,317.097c0,50.041-37.521,81.127-97.922,81.127
		c-30.518,0-60.58-7.818-86.789-22.318c14.439-4.994,27.107-13.801,36.799-25.223c0.086-0.084,0.168-0.174,0.252-0.262
		c16.529,7.18,33.291,10.69,50.998,10.69c38.645,0,52.414-19.482,52.414-37.715v-0.838c0-25.625-20.584-35.229-66.738-47.066
		c-8.209-2.094-15.082-3.983-21.225-5.832c-3.209-9.631-8.104-18.492-14.344-26.234c-0.154-0.23-0.313-0.461-0.488-0.682
		c-0.26-0.33-0.543-0.629-0.834-0.916c-12.861-15.178-30.973-25.773-51.514-28.916c-1.006-5.477-1.494-11.475-1.494-18.436
		c0-47.016,37.326-78.605,92.885-78.605c35.949,0,68.037,9.939,95.521,29.564l-22.58,32.744
		c-26.537-16.939-50.752-25.197-73.781-25.197c-33.018,0-47.797,17.887-47.797,35.615v0.84c0,28.811,24.322,36.383,70.891,48.313
		c31.125,8.109,51.766,17.195,64.957,28.596c14.184,12.258,20.789,28.117,20.789,49.91V317.097z"/>
</g>
<g>
</g>
<g>
</g>
<g>
</g>
<g>
</g>
<g>
</g>
<g>
</g>
<g>
</g>
<g>
</g>
<g>
</g>
<g>
</g>
<g>
</g>
<g>
</g>
<g>
</g>
<g>
</g>
<g>
</g>
</svg>
